<?xml version="1.0" encoding="iso-8859-1"?>
<!-- Generator: Adobe Illustrator 16.0.0, SVG Export Plug-In . SVG Version: 6.00 Build 0)  -->
<!DOCTYPE svg PUBLIC "-//W3C//DTD SVG 1.1//EN" "http://www.w3.org/Graphics/SVG/1.1/DTD/svg11.dtd">
<svg version="1.1" id="Capa_1" xmlns="http://www.w3.org/2000/svg" xmlns:xlink="http://www.w3.org/1999/xlink" x="0px" y="0px"
	 width="351.576px" height="351.576px" viewBox="0 0 351.576 351.576" style="enable-background:new 0 0 351.576 351.576;"
	 xml:space="preserve">
<g>
	<g id="Artwork_64_">
		<g id="Layer_5_64_">
			<g>
				<path d="M88.888,240.45l28.039,48.836c1.572,2.736,4.435,4.27,7.379,4.27c1.436,0,2.891-0.363,4.225-1.131
					c4.071-2.337,5.477-7.531,3.139-11.604l-28.04-48.836c-2.338-4.072-7.534-5.479-11.604-3.14
					C87.956,231.183,86.551,236.379,88.888,240.45z"/>
				<path d="M223.045,292.424c1.335,0.767,2.789,1.13,4.226,1.13c2.943,0,5.808-1.531,7.379-4.27l28.04-48.836
					c2.337-4.07,0.932-9.266-3.14-11.603c-4.07-2.338-9.267-0.932-11.604,3.14l-28.04,48.836
					C217.568,284.892,218.975,290.087,223.045,292.424z"/>
				<path d="M175.788,290.897c4.694,0,8.5-3.807,8.5-8.5v-48.836c0-4.695-3.806-8.5-8.5-8.5c-4.694,0-8.5,3.805-8.5,8.5v48.836
					C167.288,287.091,171.094,290.897,175.788,290.897z"/>
			</g>
			<path d="M271.613,77.347c-1.695,0-3.373,0.072-5.04,0.18c-0.239,0.016-0.47,0.017-0.675-0.106
				c-0.223-0.133-0.254-0.316-0.361-0.552c-15.576-34.015-49.889-57.659-89.749-57.659c-39.648,0-73.807,23.392-89.498,57.116
				c-0.193,0.415-0.351,0.753-0.744,0.988c-0.34,0.203-0.618,0.208-1.014,0.184c-1.512-0.092-3.034-0.15-4.569-0.15
				C35.801,77.348,0,113.151,0,157.311c0,16.951,4.447,32.153,12.538,45.672c16.713,27.929,60.806,115.941,60.806,115.941
				c3.992,7.664,13.518,13.441,22.158,13.441h160.573c8.641,0,18.167-5.777,22.158-13.441c0,0,58.249-114.091,59.055-116.023
				c6.179-14.808,14.288-28.64,14.288-45.59C351.576,113.15,315.774,77.347,271.613,77.347z M118.382,111.405
				c0.846-15.814,13.775-28.87,29.605-28.87c16.276,0,25.755,17.367,27.802,17.367c2.337,0,12.221-17.367,27.798-17.367
				c15.834,0,28.761,13.057,29.607,28.87c0.478,8.931-2.392,15.698-6.46,21.882c-8.159,12.409-43.282,41.912-50.893,41.912
				c-7.455,0-42.896-29.611-51.001-41.912C120.784,127.131,117.904,120.335,118.382,111.405z M317.544,206.644l-54.389,104.428
				c-1.066,2.048-4.772,4.295-7.08,4.295H95.502c-2.309,0-6.014-2.247-7.081-4.295L33.902,206.394c0,0-1.177-1.49,1.573-1.49
				c70.744,0,210.516,0,280.688,0C318.538,204.903,317.544,206.644,317.544,206.644z"/>
		</g>
	</g>
</g>
<g>
</g>
<g>
</g>
<g>
</g>
<g>
</g>
<g>
</g>
<g>
</g>
<g>
</g>
<g>
</g>
<g>
</g>
<g>
</g>
<g>
</g>
<g>
</g>
<g>
</g>
<g>
</g>
<g>
</g>
</svg>
