<?xml version="1.0" encoding="UTF-8"?>
<svg width="700pt" height="700pt" version="1.1" viewBox="0 0 700 700" xmlns="http://www.w3.org/2000/svg" xmlns:xlink="http://www.w3.org/1999/xlink">
 <defs>
  <symbol id="w" overflow="visible">
   <path d="m3.6562-0.21875c-0.1875 0.09375-0.38672 0.16797-0.59375 0.21875-0.19922 0.050781-0.40625 0.078125-0.625 0.078125-0.66797 0-1.1992-0.17969-1.5938-0.54688-0.38672-0.375-0.57812-0.87891-0.57812-1.5156 0-0.64453 0.19141-1.1484 0.57812-1.5156 0.39453-0.375 0.92578-0.5625 1.5938-0.5625 0.21875 0 0.42578 0.027344 0.625 0.078125 0.20703 0.054687 0.40625 0.125 0.59375 0.21875v0.82812c-0.1875-0.125-0.375-0.21875-0.5625-0.28125-0.17969-0.0625-0.37109-0.09375-0.57812-0.09375-0.36719 0-0.65625 0.12109-0.875 0.35938-0.21094 0.23047-0.3125 0.55469-0.3125 0.96875 0 0.40625 0.10156 0.73047 0.3125 0.96875 0.21875 0.23047 0.50781 0.34375 0.875 0.34375 0.20703 0 0.39844-0.023437 0.57812-0.078125 0.1875-0.0625 0.375-0.16016 0.5625-0.29688z"/>
  </symbol>
  <symbol id="d" overflow="visible">
   <path d="m2.6875-2.1719c-0.085938-0.039063-0.16797-0.070313-0.25-0.09375-0.085938-0.019531-0.16797-0.03125-0.25-0.03125-0.25 0-0.44531 0.085937-0.57812 0.25-0.125 0.15625-0.1875 0.38281-0.1875 0.67188v1.375h-0.96875v-2.9844h0.96875v0.48438c0.11328-0.19531 0.25-0.33594 0.40625-0.42188 0.16406-0.09375 0.35938-0.14062 0.57812-0.14062h0.10938c0.039063 0 0.09375 0.007812 0.15625 0.015625z"/>
  </symbol>
  <symbol id="a" overflow="visible">
   <path d="m3.4375-1.5v0.26562h-2.2344c0.03125 0.23047 0.11328 0.40234 0.25 0.51562 0.13281 0.10547 0.32812 0.15625 0.57812 0.15625 0.20703 0 0.41406-0.023438 0.625-0.078125 0.20703-0.0625 0.42188-0.15625 0.64062-0.28125v0.73438c-0.21875 0.09375-0.44531 0.16406-0.67188 0.20312-0.23047 0.039062-0.45312 0.0625-0.67188 0.0625-0.54297 0-0.96484-0.13281-1.2656-0.40625-0.30469-0.28125-0.45312-0.67188-0.45312-1.1719 0-0.47656 0.14453-0.85938 0.4375-1.1406 0.30078-0.28125 0.70703-0.42188 1.2188-0.42188 0.46875 0 0.84375 0.14062 1.125 0.42188s0.42188 0.66406 0.42188 1.1406zm-0.96875-0.32812c0-0.17578-0.058594-0.31641-0.17188-0.42188-0.10547-0.11328-0.24219-0.17188-0.40625-0.17188-0.1875 0-0.33984 0.054687-0.45312 0.15625-0.11719 0.10547-0.1875 0.25-0.21875 0.4375z"/>
  </symbol>
  <symbol id="k" overflow="visible">
   <path d="m1.7969-1.3438c-0.19922 0-0.35156 0.039062-0.45312 0.10938-0.09375 0.0625-0.14062 0.16406-0.14062 0.29688 0 0.11719 0.035156 0.21094 0.10938 0.28125 0.082031 0.0625 0.19531 0.09375 0.34375 0.09375 0.17578 0 0.32812-0.0625 0.45312-0.1875s0.1875-0.28516 0.1875-0.48438v-0.10938zm1.4688-0.35938v1.7031h-0.96875v-0.4375c-0.125 0.17969-0.27344 0.30859-0.4375 0.39062-0.15625 0.082031-0.35156 0.125-0.57812 0.125-0.3125 0-0.57031-0.085938-0.76562-0.26562-0.1875-0.1875-0.28125-0.42188-0.28125-0.70312 0-0.35156 0.11719-0.61328 0.35938-0.78125 0.23828-0.16406 0.61719-0.25 1.1406-0.25h0.5625v-0.0625c0-0.15625-0.0625-0.26562-0.1875-0.32812-0.11719-0.070312-0.29688-0.10938-0.54688-0.10938-0.21094 0-0.40234 0.023437-0.57812 0.0625-0.17969 0.042969-0.33984 0.10156-0.48438 0.17188v-0.71875c0.19531-0.050781 0.39844-0.085938 0.60938-0.10938 0.20703-0.03125 0.41406-0.046875 0.625-0.046875 0.53906 0 0.92969 0.10938 1.1719 0.32812 0.23828 0.21094 0.35938 0.55469 0.35938 1.0312z"/>
  </symbol>
  <symbol id="c" overflow="visible">
   <path d="m1.5-3.8438v0.85938h0.98438v0.67188h-0.98438v1.2812c0 0.13672 0.023438 0.23047 0.078125 0.28125 0.0625 0.042969 0.17578 0.0625 0.34375 0.0625h0.48438v0.6875h-0.8125c-0.38672 0-0.65625-0.078125-0.8125-0.23438s-0.23438-0.42188-0.23438-0.79688v-1.2812h-0.46875v-0.67188h0.46875v-0.85938z"/>
  </symbol>
  <symbol id="j" overflow="visible">
   <path d="m2.5-2.5469v-1.6094h0.95312v4.1562h-0.95312v-0.4375c-0.13672 0.17969-0.28125 0.30859-0.4375 0.39062-0.15625 0.082031-0.33984 0.125-0.54688 0.125-0.375 0-0.68359-0.14453-0.92188-0.4375-0.23047-0.28906-0.34375-0.67188-0.34375-1.1406 0-0.45703 0.11328-0.83203 0.34375-1.125 0.23828-0.28906 0.54688-0.4375 0.92188-0.4375 0.19531 0 0.375 0.042969 0.53125 0.125 0.16406 0.085938 0.31641 0.21484 0.45312 0.39062zm-0.64062 1.9375c0.20703 0 0.36328-0.070313 0.46875-0.21875 0.11328-0.15625 0.17188-0.37891 0.17188-0.67188 0-0.28125-0.058594-0.49219-0.17188-0.64062-0.10547-0.15625-0.26172-0.23438-0.46875-0.23438-0.19922 0-0.35547 0.078125-0.46875 0.23438-0.10547 0.14844-0.15625 0.35938-0.15625 0.64062 0 0.29297 0.050781 0.51562 0.15625 0.67188 0.11328 0.14844 0.26953 0.21875 0.46875 0.21875z"/>
  </symbol>
  <symbol id="i" overflow="visible">
   <path d="m2.0469-0.60938c0.20703 0 0.36328-0.070313 0.46875-0.21875 0.11328-0.15625 0.17188-0.37891 0.17188-0.67188 0-0.28125-0.058594-0.49219-0.17188-0.64062-0.10547-0.15625-0.26172-0.23438-0.46875-0.23438-0.19922 0-0.35547 0.078125-0.46875 0.23438-0.10547 0.14844-0.15625 0.35938-0.15625 0.64062 0 0.29297 0.050781 0.51562 0.15625 0.67188 0.11328 0.14844 0.26953 0.21875 0.46875 0.21875zm-0.625-1.9375c0.125-0.17578 0.26562-0.30469 0.42188-0.39062 0.16406-0.082031 0.35156-0.125 0.5625-0.125 0.36328 0 0.66406 0.14844 0.90625 0.4375 0.23828 0.29297 0.35938 0.66797 0.35938 1.125 0 0.46875-0.12109 0.85156-0.35938 1.1406-0.24219 0.29297-0.54297 0.4375-0.90625 0.4375-0.21094 0-0.39844-0.042969-0.5625-0.125-0.15625-0.082031-0.29688-0.21094-0.42188-0.39062v0.4375h-0.96875v-4.1562h0.96875z"/>
  </symbol>
  <symbol id="h" overflow="visible">
   <path d="m0.0625-2.9844h0.95312l0.8125 2.0156 0.6875-2.0156h0.95312l-1.2656 3.2656c-0.125 0.33203-0.27344 0.56641-0.4375 0.70312-0.16797 0.13281-0.39062 0.20312-0.67188 0.20312h-0.54688v-0.64062h0.29688c0.16406 0 0.28516-0.027344 0.35938-0.078125 0.070313-0.054688 0.12891-0.14062 0.17188-0.26562l0.03125-0.09375z"/>
  </symbol>
  <symbol id="g" overflow="visible">
   <path d="m0.5-3.9844h1.0312v3.9844h-1.0312z"/>
  </symbol>
  <symbol id="f" overflow="visible">
   <path d="m2.875-2.8906v0.76562c-0.125-0.082031-0.25781-0.14453-0.39062-0.1875-0.13672-0.039062-0.27344-0.0625-0.40625-0.0625-0.27344 0-0.48047 0.078125-0.625 0.23438-0.14844 0.15625-0.21875 0.37109-0.21875 0.64062 0 0.28125 0.070313 0.5 0.21875 0.65625 0.14453 0.15625 0.35156 0.23438 0.625 0.23438 0.14453 0 0.28516-0.019531 0.42188-0.0625 0.13281-0.039063 0.25781-0.10938 0.375-0.20312v0.78125c-0.14844 0.0625-0.29688 0.10156-0.45312 0.125-0.15625 0.03125-0.3125 0.046875-0.46875 0.046875-0.54297 0-0.96484-0.13281-1.2656-0.40625-0.30469-0.28125-0.45312-0.67188-0.45312-1.1719 0-0.48828 0.14844-0.86719 0.45312-1.1406 0.30078-0.28125 0.72266-0.42188 1.2656-0.42188 0.15625 0 0.3125 0.015625 0.46875 0.046875 0.15625 0.023437 0.30469 0.0625 0.45312 0.125z"/>
  </symbol>
  <symbol id="b" overflow="visible">
   <path d="m1.875-2.375c-0.21094 0-0.37109 0.078125-0.48438 0.23438-0.10547 0.14844-0.15625 0.35938-0.15625 0.64062 0 0.29297 0.050781 0.51562 0.15625 0.67188 0.11328 0.14844 0.27344 0.21875 0.48438 0.21875 0.20703 0 0.36719-0.070313 0.48438-0.21875 0.11328-0.15625 0.17188-0.37891 0.17188-0.67188 0-0.28125-0.058594-0.49219-0.17188-0.64062-0.11719-0.15625-0.27734-0.23438-0.48438-0.23438zm0-0.6875c0.51953 0 0.92188 0.14062 1.2031 0.42188 0.28906 0.27344 0.4375 0.65234 0.4375 1.1406 0 0.5-0.14844 0.89062-0.4375 1.1719-0.28125 0.27344-0.68359 0.40625-1.2031 0.40625-0.51172 0-0.91406-0.13281-1.2031-0.40625-0.29297-0.28125-0.4375-0.67188-0.4375-1.1719 0-0.48828 0.14453-0.86719 0.4375-1.1406 0.28906-0.28125 0.69141-0.42188 1.2031-0.42188z"/>
  </symbol>
  <symbol id="e" overflow="visible">
   <path d="m3.4688-1.8281v1.8281h-0.96875v-1.3906c0-0.25781-0.007812-0.4375-0.015625-0.53125-0.011719-0.10156-0.03125-0.17578-0.0625-0.21875-0.03125-0.0625-0.085937-0.10938-0.15625-0.14062-0.0625-0.039062-0.13281-0.0625-0.20312-0.0625-0.21094 0-0.37109 0.078125-0.48438 0.23438-0.10547 0.15625-0.15625 0.37109-0.15625 0.64062v1.4688h-0.96875v-2.9844h0.96875v0.4375c0.13281-0.17578 0.28516-0.30469 0.45312-0.39062 0.16406-0.082031 0.34375-0.125 0.53125-0.125 0.34375 0 0.60156 0.10938 0.78125 0.32812 0.1875 0.21094 0.28125 0.51172 0.28125 0.90625z"/>
  </symbol>
  <symbol id="v" overflow="visible">
   <path d="m2.5-0.5c-0.13672 0.16797-0.28125 0.29297-0.4375 0.375-0.15625 0.085938-0.33984 0.125-0.54688 0.125-0.36719 0-0.66797-0.14062-0.90625-0.42188-0.24219-0.28906-0.35938-0.66016-0.35938-1.1094 0-0.44531 0.11719-0.8125 0.35938-1.0938 0.23828-0.28906 0.53906-0.4375 0.90625-0.4375 0.20703 0 0.39062 0.042969 0.54688 0.125 0.15625 0.085938 0.30078 0.21484 0.4375 0.39062v-0.4375h0.95312v2.6875c0 0.47656-0.15234 0.84375-0.45312 1.0938-0.30469 0.25781-0.74609 0.39062-1.3281 0.39062-0.17969 0-0.35547-0.015625-0.53125-0.046875-0.17969-0.03125-0.35547-0.078125-0.53125-0.14062v-0.73438c0.16406 0.09375 0.32812 0.16016 0.48438 0.20312 0.16406 0.050781 0.33203 0.078125 0.5 0.078125 0.3125 0 0.53906-0.070313 0.6875-0.20312 0.14453-0.13672 0.21875-0.34766 0.21875-0.64062zm-0.64062-1.875c-0.19922 0-0.35547 0.074219-0.46875 0.21875-0.10547 0.14844-0.15625 0.35547-0.15625 0.625 0 0.27344 0.050781 0.48047 0.15625 0.625 0.11328 0.14844 0.26953 0.21875 0.46875 0.21875 0.19531 0 0.35156-0.070312 0.46875-0.21875 0.11328-0.14453 0.17188-0.35156 0.17188-0.625 0-0.26953-0.058594-0.47656-0.17188-0.625-0.11719-0.14453-0.27344-0.21875-0.46875-0.21875z"/>
  </symbol>
  <symbol id="u" overflow="visible">
   <path d="m0.45312-4.1562h0.96875v2.2656l1.0938-1.0938h1.1094l-1.4531 1.3594 1.5625 1.625h-1.1562l-1.1562-1.25v1.25h-0.96875z"/>
  </symbol>
  <symbol id="t" overflow="visible">
   <path d="m1.5781-0.75h1.75v0.75h-2.8906v-0.75l1.4531-1.2969c0.125-0.11328 0.21875-0.22266 0.28125-0.32812 0.0625-0.11328 0.09375-0.23438 0.09375-0.35938 0-0.1875-0.0625-0.33594-0.1875-0.45312-0.125-0.11328-0.29297-0.17188-0.5-0.17188-0.15625 0-0.33594 0.039063-0.53125 0.10938-0.1875 0.0625-0.39062 0.16406-0.60938 0.29688v-0.875c0.23828-0.070313 0.46875-0.12891 0.6875-0.17188 0.22656-0.039062 0.45312-0.0625 0.67188-0.0625 0.47656 0 0.84766 0.10938 1.1094 0.32812 0.25781 0.21094 0.39062 0.5 0.39062 0.875 0 0.21094-0.058594 0.41406-0.17188 0.60938-0.10547 0.1875-0.33984 0.4375-0.70312 0.75z"/>
  </symbol>
  <symbol id="s" overflow="visible">
   <path d="m1.9844-1.9688c-0.1875 0-0.32812 0.058594-0.42188 0.17188-0.085938 0.11719-0.125 0.29297-0.125 0.53125 0 0.23047 0.039062 0.40625 0.125 0.53125 0.09375 0.11719 0.23438 0.17188 0.42188 0.17188 0.17578 0 0.30469-0.054688 0.39062-0.17188 0.09375-0.125 0.14062-0.30078 0.14062-0.53125 0-0.23828-0.046875-0.41406-0.14062-0.53125-0.085938-0.11328-0.21484-0.17188-0.39062-0.17188zm1.2656-1.9062v0.73438c-0.16797-0.082031-0.32812-0.14062-0.48438-0.17188-0.14844-0.039062-0.29297-0.0625-0.4375-0.0625-0.30469 0-0.54297 0.085938-0.71875 0.25-0.16797 0.16797-0.26562 0.41797-0.29688 0.75 0.125-0.082031 0.25391-0.14453 0.39062-0.1875 0.13281-0.039062 0.28516-0.0625 0.45312-0.0625 0.40625 0 0.73438 0.12109 0.98438 0.35938 0.25 0.23047 0.375 0.54297 0.375 0.9375 0 0.42969-0.14062 0.77344-0.42188 1.0312-0.28125 0.25-0.65625 0.375-1.125 0.375-0.52344 0-0.92188-0.17188-1.2031-0.51562-0.28125-0.35156-0.42188-0.85156-0.42188-1.5 0-0.65625 0.16016-1.1719 0.48438-1.5469 0.33203-0.375 0.78906-0.5625 1.375-0.5625 0.1875 0 0.36328 0.015625 0.53125 0.046875 0.17578 0.023438 0.34766 0.0625 0.51562 0.125z"/>
  </symbol>
  <symbol id="r" overflow="visible">
   <path d="m2.4219-4.1562v0.625h-0.51562c-0.13672 0-0.23438 0.027344-0.29688 0.078125-0.054687 0.054687-0.078125 0.13672-0.078125 0.25v0.21875h0.82812v0.67188h-0.82812v2.3125h-0.95312v-2.3125h-0.46875v-0.67188h0.46875v-0.21875c0-0.32031 0.085937-0.5625 0.26562-0.71875 0.1875-0.15625 0.47266-0.23438 0.85938-0.23438z"/>
  </symbol>
  <symbol id="q" overflow="visible">
   <path d="m3.2344-2.5c0.11328-0.17578 0.25391-0.3125 0.42188-0.40625 0.16406-0.10156 0.35156-0.15625 0.5625-0.15625 0.33203 0 0.58594 0.10938 0.76562 0.32812 0.1875 0.21094 0.28125 0.51172 0.28125 0.90625v1.8281h-0.96875v-1.5625c0.007813-0.019531 0.015625-0.039062 0.015625-0.0625v-0.10938c0-0.21875-0.03125-0.375-0.09375-0.46875s-0.16406-0.14062-0.29688-0.14062c-0.1875 0-0.33594 0.078125-0.4375 0.23438-0.09375 0.14844-0.14062 0.35938-0.14062 0.64062v1.4688h-0.96875v-1.5625c0-0.33203-0.03125-0.54688-0.09375-0.64062-0.054688-0.09375-0.15234-0.14062-0.29688-0.14062-0.17969 0-0.32031 0.078125-0.42188 0.23438-0.09375 0.14844-0.14062 0.35938-0.14062 0.64062v1.4688h-0.96875v-2.9844h0.96875v0.4375c0.11328-0.17578 0.24219-0.30469 0.39062-0.39062 0.15625-0.082031 0.32812-0.125 0.51562-0.125 0.20703 0 0.39062 0.054688 0.54688 0.15625 0.15625 0.09375 0.27344 0.23047 0.35938 0.40625z"/>
  </symbol>
  <symbol id="p" overflow="visible">
   <path d="m3.4688-1.8281v1.8281h-0.96875v-1.3906c0-0.25781-0.007812-0.4375-0.015625-0.53125-0.011719-0.10156-0.03125-0.17578-0.0625-0.21875-0.03125-0.0625-0.085937-0.10938-0.15625-0.14062-0.0625-0.039062-0.13281-0.0625-0.20312-0.0625-0.21094 0-0.37109 0.078125-0.48438 0.23438-0.10547 0.15625-0.15625 0.37109-0.15625 0.64062v1.4688h-0.96875v-4.1562h0.96875v1.6094c0.13281-0.17578 0.28516-0.30469 0.45312-0.39062 0.16406-0.082031 0.34375-0.125 0.53125-0.125 0.34375 0 0.60156 0.10938 0.78125 0.32812 0.1875 0.21094 0.28125 0.51172 0.28125 0.90625z"/>
  </symbol>
  <symbol id="o" overflow="visible">
   <path d="m0.5-3.9844h1.1562l1.4375 2.7344v-2.7344h0.98438v3.9844h-1.1562l-1.4375-2.7344v2.7344h-0.98438z"/>
  </symbol>
  <symbol id="n" overflow="visible">
   <path d="m0.42188-1.1719v-1.8125h0.96875v0.29688 0.60938 0.48438c0 0.24219 0.003906 0.41797 0.015625 0.53125 0.007812 0.10547 0.03125 0.17969 0.0625 0.21875 0.039062 0.0625 0.09375 0.11719 0.15625 0.15625 0.0625 0.03125 0.13281 0.046875 0.21875 0.046875 0.19531 0 0.35156-0.078125 0.46875-0.23438 0.11328-0.15625 0.17188-0.36719 0.17188-0.64062v-1.4688h0.95312v2.9844h-0.95312v-0.4375c-0.14844 0.17969-0.30469 0.30859-0.46875 0.39062-0.15625 0.082031-0.33594 0.125-0.53125 0.125-0.34375 0-0.60938-0.10156-0.79688-0.3125-0.17969-0.21875-0.26562-0.53125-0.26562-0.9375z"/>
  </symbol>
  <symbol id="m" overflow="visible">
   <path d="m0.5-3.9844h1.7031c0.50781 0 0.89844 0.11719 1.1719 0.34375 0.26953 0.21875 0.40625 0.53906 0.40625 0.95312 0 0.41797-0.13672 0.74219-0.40625 0.96875-0.27344 0.21875-0.66406 0.32812-1.1719 0.32812h-0.67188v1.3906h-1.0312zm1.0312 0.75v1.1094h0.5625c0.19531 0 0.34766-0.046875 0.45312-0.14062 0.11328-0.10156 0.17188-0.24219 0.17188-0.42188 0-0.17578-0.058594-0.3125-0.17188-0.40625-0.10547-0.09375-0.25781-0.14062-0.45312-0.14062z"/>
  </symbol>
  <symbol id="l" overflow="visible">
   <path d="m0.45312-2.9844h0.96875v2.9375c0 0.39453-0.10156 0.69531-0.29688 0.90625-0.1875 0.21875-0.46484 0.32812-0.82812 0.32812h-0.48438v-0.64062h0.17188c0.17578 0 0.29688-0.042969 0.35938-0.125 0.070312-0.074219 0.10938-0.23047 0.10938-0.46875zm0-1.1719h0.96875v0.78125h-0.96875z"/>
  </symbol>
 </defs>
 <g>
  <path d="m348.91 270.63c3.625 0 6.5625-2.9375 6.5625-6.5625v-53.426c0-3.625-2.9375-6.5625-6.5625-6.5625s-6.5625 2.9375-6.5625 6.5625v53.426c0 3.625 2.9375 6.5625 6.5625 6.5625z"/>
  <path d="m278.66 200.59c-2.793-2.3086-6.9297-1.918-9.2383 0.875l-31.316 37.883c-2.3086 2.7969-1.918 6.9336 0.87891 9.2422 2.793 2.3086 6.9297 1.9141 9.2383-0.87891l31.312-37.883c2.3086-2.793 1.918-6.9297-0.875-9.2383z"/>
  <path d="m451.77 247.71c2.3086 2.793 6.4453 3.1875 9.2422 0.87891 2.793-2.3086 3.1836-6.4453 0.875-9.2422l-31.312-37.883c-2.3086-2.793-6.4453-3.1875-9.2383-0.87891-2.7969 2.3125-3.1875 6.4492-0.87891 9.2422z"/>
  <path d="m192.39 231.75c1.6172 0.003906 3.1797-0.59375 4.3828-1.6797 7.7422-6.9375 16-13.273 24.703-18.957 20.16-13.121 42.289-22.926 65.547-29.043 3.5039-0.92969 5.5898-4.5234 4.6602-8.0273-0.92969-3.5039-4.5234-5.5898-8.0273-4.6602-24.613 6.4766-48.027 16.852-69.355 30.734-9.2656 6.0508-18.055 12.797-26.297 20.18-2.0234 1.8164-2.7148 4.6914-1.7422 7.2305 0.97266 2.5391 3.4102 4.2148 6.1289 4.2148z"/>
  <path d="m315.09 176.34c0.30078 0 0.60156-0.019532 0.89844-0.0625 3.9727-0.54688 8.0234-0.99609 12.039-1.3477v0.003907c3.6094-0.31641 6.2812-3.5 5.9688-7.1094-0.31641-3.6133-3.5-6.2852-7.1094-5.9688-4.2266 0.36719-8.4922 0.84766-12.676 1.4219-3.4219 0.46484-5.8945 3.5-5.6641 6.9453 0.23438 3.4414 3.0938 6.1172 6.543 6.1211z"/>
  <path d="m94.062 322.68v64.461c0.007812 15.941 6.3359 31.23 17.598 42.516 11.262 11.285 26.535 17.645 42.48 17.688h7.7344v14.629c0.070312 4.5586 1.9336 8.9102 5.1836 12.109 3.2539 3.1953 7.6328 4.9883 12.195 4.9805h341.49c4.5625 0.007812 8.9414-1.7852 12.195-4.9805 3.25-3.1992 5.1133-7.5508 5.1836-12.109v-14.629h7.7344c15.945-0.042969 31.219-6.4023 42.48-17.688 11.262-11.285 17.59-26.574 17.598-42.516v-64.461c5.9844-2.0742 10.629-6.875 12.504-12.926 1.8789-6.0508 0.76953-12.633-2.9922-17.73-3.7578-5.1016-9.7188-8.1094-16.055-8.1055-4.1367-0.007813-8.2695 0.21875-12.383 0.67578-16.129-41.789-47.117-79.164-87.73-105.65-32.391-20.973-68.941-34.68-107.14-40.168 4.3477-13.477 1.9922-28.219-6.3438-39.668-8.332-11.449-21.641-18.219-35.801-18.219s-27.469 6.7695-35.801 18.219c-8.3359 11.449-10.691 26.191-6.3438 39.668-38.266 5.4961-74.883 19.242-107.31 40.285-40.535 26.48-71.445 63.805-87.551 105.54v-0.003906c-4.1172-0.45703-8.2539-0.68359-12.395-0.67578-6.332 0-12.293 3.0078-16.051 8.1094-3.7578 5.0977-4.8672 11.68-2.9883 17.73 1.875 6.0508 6.5195 10.848 12.504 12.922zm430.94 139.29c-0.13672 2.2422-2.0078 3.9844-4.2539 3.9648h-341.49c-2.2461 0.019531-4.1172-1.7227-4.2539-3.9648v-14.629h350zm67.812-93.379h-375.16c-3.625 0-6.5625 2.9375-6.5625 6.5625s2.9375 6.5625 6.5625 6.5625h375.16v5.4219c-0.003906 12.461-4.9492 24.414-13.75 33.238-8.8008 8.8242-20.738 13.801-33.203 13.84h-391.72c-12.465-0.039062-24.402-5.0156-33.203-13.84-8.8008-8.8242-13.746-20.777-13.75-33.238v-5.4219h66.719c3.625 0 6.5625-2.9375 6.5625-6.5625s-2.9375-6.5625-6.5625-6.5625h-66.719v-44.504c10.938 0.94922 16.719 4.3633 24.91 9.1602 11.34 6.6406 25.445 14.902 51.637 14.902 26.195 0 40.297-8.2617 51.641-14.902 9.7031-5.6875 16.113-9.4375 31.484-9.4375s21.781 3.7539 31.488 9.4375c11.34 6.6406 25.453 14.902 51.645 14.902 26.191 0 40.305-8.2617 51.645-14.902 9.7031-5.6875 16.113-9.4375 31.488-9.4375s21.785 3.7539 31.492 9.4375c11.34 6.6367 25.453 14.898 51.645 14.898 26.191 0 40.293-8.2617 51.637-14.902 8.1914-4.793 13.977-8.207 24.914-9.1562zm-242.81-274.53c10.402 0.003906 20.117 5.1953 25.898 13.844 5.7812 8.6445 6.8711 19.605 2.9023 29.219-9.4961-0.94922-19.098-1.4258-28.801-1.4336-9.707-0.007812-19.305 0.46875-28.801 1.4336-3.9688-9.6133-2.8789-20.574 2.9023-29.219 5.7812-8.6484 15.496-13.84 25.898-13.844zm-142.28 95.988c41.285-26.973 90.484-41.23 142.28-41.23 51.723 0 100.86 14.219 142.11 41.125 37.582 24.508 66.383 58.797 81.762 97.125-11.176 3.0117-19.172 7.6875-26.125 11.758-9.7031 5.6797-16.113 9.4336-31.492 9.4336-15.379 0-21.785-3.7539-31.488-9.4336-11.34-6.6406-25.453-14.902-51.648-14.902-26.195 0-40.309 8.2617-51.648 14.902-9.7031 5.6797-16.113 9.4336-31.488 9.4336s-21.785-3.7539-31.488-9.4336c-11.34-6.6406-25.453-14.902-51.645-14.902-26.191 0-40.301 8.2617-51.645 14.902-9.7031 5.6797-16.109 9.4336-31.484 9.4336s-21.785-3.7539-31.488-9.4336c-6.9492-4.0703-14.945-8.75-26.117-11.758 15.363-38.277 44.094-72.52 81.602-97.02zm-107.12 106.99c22.633 0 34.008 6.6602 45.012 13.102 10.293 6.0273 19.184 11.234 38.117 11.234 18.934 0 27.824-5.207 38.117-11.234 11.004-6.4414 22.379-13.102 45.012-13.102 22.629 0 34.016 6.6602 45.016 13.102 10.293 6.0273 19.184 11.234 38.117 11.234 18.934 0 27.824-5.207 38.121-11.234 11.004-6.4414 22.379-13.102 45.016-13.102s34.016 6.6602 45.016 13.102c10.293 6.0273 19.184 11.234 38.121 11.234s27.828-5.207 38.125-11.234c11.004-6.4414 22.383-13.102 45.016-13.102 1.8242-0.023438 3.582 0.68359 4.8789 1.9688 1.2969 1.2812 2.0273 3.0273 2.0273 4.8516 0 1.8281-0.73047 3.5742-2.0273 4.8555s-3.0547 1.9922-4.8789 1.9688c-18.934 0-27.824 5.207-38.121 11.234-11.004 6.4414-22.383 13.102-45.02 13.102s-34.016-6.6602-45.016-13.102c-10.297-6.0273-19.188-11.234-38.121-11.234s-27.824 5.207-38.121 11.234c-11.004 6.4414-22.379 13.102-45.012 13.102-22.633 0-34.016-6.6602-45.012-13.102-10.293-6.0273-19.188-11.234-38.121-11.234s-27.824 5.207-38.121 11.234c-11 6.4414-22.379 13.102-45.008 13.102-22.629 0-34.012-6.6602-45.012-13.102-10.293-6.0273-19.188-11.234-38.117-11.234h-0.003906c-1.8242 0.023438-3.582-0.6875-4.8789-1.9688s-2.0273-3.0273-2.0273-4.8555c0-1.8242 0.73047-3.5703 2.0273-4.8516 1.2969-1.2852 3.0547-1.9922 4.8789-1.9688z"/>
  <use x="70" y="576.40625" xlink:href="#w"/>
 </g>
</svg>
