<?xml version="1.0" encoding="UTF-8"?>
<svg width="700pt" height="700pt" version="1.1" viewBox="0 0 700 700" xmlns="http://www.w3.org/2000/svg" xmlns:xlink="http://www.w3.org/1999/xlink">
 <defs>
  <symbol id="s" overflow="visible">
   <path d="m18.766-1.125c-0.96875 0.5-1.9805 0.875-3.0312 1.125-1.043 0.25781-2.1367 0.39062-3.2812 0.39062-3.3984 0-6.0898-0.94531-8.0781-2.8438-1.9922-1.9062-2.9844-4.4844-2.9844-7.7344 0-3.2578 0.99219-5.8359 2.9844-7.7344 1.9883-1.9062 4.6797-2.8594 8.0781-2.8594 1.1445 0 2.2383 0.13281 3.2812 0.39062 1.0508 0.25 2.0625 0.625 3.0312 1.125v4.2188c-0.98047-0.65625-1.9453-1.1406-2.8906-1.4531-0.94922-0.3125-1.9492-0.46875-3-0.46875-1.875 0-3.3516 0.60547-4.4219 1.8125-1.0742 1.1992-1.6094 2.8555-1.6094 4.9688 0 2.1055 0.53516 3.7617 1.6094 4.9688 1.0703 1.1992 2.5469 1.7969 4.4219 1.7969 1.0508 0 2.0508-0.14844 3-0.45312 0.94531-0.3125 1.9102-0.80078 2.8906-1.4688z"/>
  </symbol>
  <symbol id="c" overflow="visible">
   <path d="m13.734-11.141c-0.4375-0.19531-0.87109-0.34375-1.2969-0.4375-0.41797-0.10156-0.83984-0.15625-1.2656-0.15625-1.2617 0-2.2305 0.40625-2.9062 1.2188-0.67969 0.80469-1.0156 1.9531-1.0156 3.4531v7.0625h-4.8906v-15.312h4.8906v2.5156c0.625-1 1.3438-1.7266 2.1562-2.1875 0.82031-0.46875 1.8008-0.70312 2.9375-0.70312 0.16406 0 0.34375 0.011719 0.53125 0.03125 0.19531 0.011719 0.47656 0.039062 0.84375 0.078125z"/>
  </symbol>
  <symbol id="a" overflow="visible">
   <path d="m17.641-7.7031v1.4062h-11.453c0.125 1.1484 0.53906 2.0078 1.25 2.5781 0.70703 0.57422 1.7031 0.85938 2.9844 0.85938 1.0312 0 2.082-0.14844 3.1562-0.45312 1.082-0.3125 2.1914-0.77344 3.3281-1.3906v3.7656c-1.1562 0.4375-2.3125 0.76562-3.4688 0.98438-1.1562 0.22656-2.3125 0.34375-3.4688 0.34375-2.7734 0-4.9297-0.70312-6.4688-2.1094-1.5312-1.4062-2.2969-3.3789-2.2969-5.9219 0-2.5 0.75391-4.4609 2.2656-5.8906 1.5078-1.4375 3.582-2.1562 6.2188-2.1562 2.4062 0 4.332 0.73047 5.7812 2.1875 1.4453 1.4492 2.1719 3.3828 2.1719 5.7969zm-5.0312-1.625c0-0.92578-0.27344-1.6719-0.8125-2.2344-0.54297-0.57031-1.25-0.85938-2.125-0.85938-0.94922 0-1.7188 0.26562-2.3125 0.79688s-0.96484 1.2969-1.1094 2.2969z"/>
  </symbol>
  <symbol id="f" overflow="visible">
   <path d="m9.2188-6.8906c-1.0234 0-1.793 0.17188-2.3125 0.51562-0.51172 0.34375-0.76562 0.85547-0.76562 1.5312 0 0.625 0.20703 1.1172 0.625 1.4688 0.41406 0.34375 0.98828 0.51562 1.7188 0.51562 0.92578 0 1.7031-0.32812 2.3281-0.98438 0.63281-0.66406 0.95312-1.4922 0.95312-2.4844v-0.5625zm7.4688-1.8438v8.7344h-4.9219v-2.2656c-0.65625 0.92969-1.3984 1.6055-2.2188 2.0312-0.82422 0.41406-1.8242 0.625-3 0.625-1.5859 0-2.8711-0.45703-3.8594-1.375-0.99219-0.92578-1.4844-2.1289-1.4844-3.6094 0-1.7891 0.61328-3.1016 1.8438-3.9375 1.2383-0.84375 3.1797-1.2656 5.8281-1.2656h2.8906v-0.39062c0-0.76953-0.30859-1.332-0.92188-1.6875-0.61719-0.36328-1.5703-0.54688-2.8594-0.54688-1.0547 0-2.0312 0.10547-2.9375 0.3125-0.89844 0.21094-1.7305 0.52344-2.5 0.9375v-3.7344c1.0391-0.25 2.0859-0.44141 3.1406-0.57812 1.0625-0.13281 2.125-0.20312 3.1875-0.20312 2.7578 0 4.75 0.54688 5.9688 1.6406 1.2266 1.0859 1.8438 2.8555 1.8438 5.3125z"/>
  </symbol>
  <symbol id="b" overflow="visible">
   <path d="m7.7031-19.656v4.3438h5.0469v3.5h-5.0469v6.5c0 0.71094 0.14062 1.1875 0.42188 1.4375s0.83594 0.375 1.6719 0.375h2.5156v3.5h-4.1875c-1.9375 0-3.3125-0.39844-4.125-1.2031-0.80469-0.8125-1.2031-2.1797-1.2031-4.1094v-6.5h-2.4219v-3.5h2.4219v-4.3438z"/>
  </symbol>
  <symbol id="e" overflow="visible">
   <path d="m12.766-13.078v-8.2031h4.9219v21.281h-4.9219v-2.2188c-0.66797 0.90625-1.4062 1.5703-2.2188 1.9844s-1.7578 0.625-2.8281 0.625c-1.8867 0-3.4336-0.75-4.6406-2.25-1.2109-1.5-1.8125-3.4258-1.8125-5.7812 0-2.3633 0.60156-4.2969 1.8125-5.7969 1.207-1.5 2.7539-2.25 4.6406-2.25 1.0625 0 2 0.21484 2.8125 0.64062 0.82031 0.42969 1.5664 1.0859 2.2344 1.9688zm-3.2188 9.9219c1.0391 0 1.8359-0.37891 2.3906-1.1406 0.55078-0.76953 0.82812-1.8828 0.82812-3.3438 0-1.457-0.27734-2.5664-0.82812-3.3281-0.55469-0.76953-1.3516-1.1562-2.3906-1.1562-1.043 0-1.8398 0.38672-2.3906 1.1562-0.55469 0.76172-0.82812 1.8711-0.82812 3.3281 0 1.4609 0.27344 2.5742 0.82812 3.3438 0.55078 0.76172 1.3477 1.1406 2.3906 1.1406z"/>
  </symbol>
  <symbol id="i" overflow="visible">
   <path d="m10.5-3.1562c1.0508 0 1.8516-0.37891 2.4062-1.1406 0.55078-0.76953 0.82812-1.8828 0.82812-3.3438 0-1.457-0.27734-2.5664-0.82812-3.3281-0.55469-0.76953-1.3555-1.1562-2.4062-1.1562-1.0547 0-1.8594 0.38672-2.4219 1.1562-0.55469 0.77344-0.82812 1.8828-0.82812 3.3281 0 1.4492 0.27344 2.5586 0.82812 3.3281 0.5625 0.77344 1.3672 1.1562 2.4219 1.1562zm-3.25-9.9219c0.67578-0.88281 1.4219-1.5391 2.2344-1.9688 0.82031-0.42578 1.7656-0.64062 2.8281-0.64062 1.8945 0 3.4453 0.75 4.6562 2.25 1.207 1.5 1.8125 3.4336 1.8125 5.7969 0 2.3555-0.60547 4.2812-1.8125 5.7812-1.2109 1.5-2.7617 2.25-4.6562 2.25-1.0625 0-2.0078-0.21094-2.8281-0.625-0.8125-0.42578-1.5586-1.0859-2.2344-1.9844v2.2188h-4.8906v-21.281h4.8906z"/>
  </symbol>
  <symbol id="h" overflow="visible">
   <path d="m0.34375-15.312h4.8906l4.125 10.391 3.5-10.391h4.8906l-6.4375 16.766c-0.64844 1.6953-1.4023 2.8828-2.2656 3.5625-0.86719 0.6875-2 1.0312-3.4062 1.0312h-2.8438v-3.2188h1.5312c0.83203 0 1.4375-0.13672 1.8125-0.40625 0.38281-0.26172 0.67969-0.73047 0.89062-1.4062l0.14062-0.42188z"/>
  </symbol>
  <symbol id="g" overflow="visible">
   <path d="m2.5781-20.406h6.6875l4.6562 10.922 4.6719-10.922h6.6875v20.406h-4.9844v-14.938l-4.7031 11.016h-3.3281l-4.7031-11.016v14.938h-4.9844z"/>
  </symbol>
  <symbol id="r" overflow="visible">
   <path d="m12.422-21.281v3.2188h-2.7031c-0.6875 0-1.1719 0.125-1.4531 0.375-0.27344 0.25-0.40625 0.6875-0.40625 1.3125v1.0625h4.1875v3.5h-4.1875v11.812h-4.8906v-11.812h-2.4375v-3.5h2.4375v-1.0625c0-1.6641 0.46094-2.8984 1.3906-3.7031 0.92578-0.80078 2.3672-1.2031 4.3281-1.2031z"/>
  </symbol>
  <symbol id="d" overflow="visible">
   <path d="m9.6406-12.188c-1.0859 0-1.9141 0.39062-2.4844 1.1719-0.57422 0.78125-0.85938 1.9062-0.85938 3.375s0.28516 2.5938 0.85938 3.375c0.57031 0.77344 1.3984 1.1562 2.4844 1.1562 1.0625 0 1.875-0.38281 2.4375-1.1562 0.57031-0.78125 0.85938-1.9062 0.85938-3.375s-0.28906-2.5938-0.85938-3.375c-0.5625-0.78125-1.375-1.1719-2.4375-1.1719zm0-3.5c2.6328 0 4.6914 0.71484 6.1719 2.1406 1.4766 1.418 2.2188 3.3867 2.2188 5.9062 0 2.5117-0.74219 4.4805-2.2188 5.9062-1.4805 1.418-3.5391 2.125-6.1719 2.125-2.6484 0-4.7148-0.70703-6.2031-2.125-1.4922-1.4258-2.2344-3.3945-2.2344-5.9062 0-2.5195 0.74219-4.4883 2.2344-5.9062 1.4883-1.4258 3.5547-2.1406 6.2031-2.1406z"/>
  </symbol>
  <symbol id="q" overflow="visible">
   <path d="m16.547-12.766c0.61328-0.94531 1.3477-1.6719 2.2031-2.1719 0.85156-0.5 1.7891-0.75 2.8125-0.75 1.7578 0 3.0977 0.54688 4.0156 1.6406 0.92578 1.0859 1.3906 2.6562 1.3906 4.7188v9.3281h-4.9219v-7.9844-0.35938c0.007813-0.13281 0.015625-0.32031 0.015625-0.5625 0-1.082-0.16406-1.8633-0.48438-2.3438-0.3125-0.48828-0.82422-0.73438-1.5312-0.73438-0.92969 0-1.6484 0.38672-2.1562 1.1562-0.51172 0.76172-0.77344 1.8672-0.78125 3.3125v7.5156h-4.9219v-7.9844c0-1.6953-0.14844-2.7852-0.4375-3.2656-0.29297-0.48828-0.8125-0.73438-1.5625-0.73438-0.9375 0-1.6641 0.38672-2.1719 1.1562-0.51172 0.76172-0.76562 1.8594-0.76562 3.2969v7.5312h-4.9219v-15.312h4.9219v2.2344c0.60156-0.86328 1.2891-1.5156 2.0625-1.9531 0.78125-0.4375 1.6406-0.65625 2.5781-0.65625 1.0625 0 2 0.25781 2.8125 0.76562 0.8125 0.51172 1.4258 1.2305 1.8438 2.1562z"/>
  </symbol>
  <symbol id="p" overflow="visible">
   <path d="m17.75-9.3281v9.3281h-4.9219v-7.1094c0-1.3438-0.03125-2.2656-0.09375-2.7656s-0.16797-0.86719-0.3125-1.1094c-0.1875-0.3125-0.44922-0.55469-0.78125-0.73438-0.32422-0.17578-0.69531-0.26562-1.1094-0.26562-1.0234 0-1.8242 0.39844-2.4062 1.1875-0.58594 0.78125-0.875 1.8711-0.875 3.2656v7.5312h-4.8906v-21.281h4.8906v8.2031c0.73828-0.88281 1.5195-1.5391 2.3438-1.9688 0.83203-0.42578 1.75-0.64062 2.75-0.64062 1.7695 0 3.1133 0.54688 4.0312 1.6406 0.91406 1.0859 1.375 2.6562 1.375 4.7188z"/>
  </symbol>
  <symbol id="o" overflow="visible">
   <path d="m2.5781-20.406h5.875l7.4219 14v-14h4.9844v20.406h-5.875l-7.4219-14v14h-4.9844z"/>
  </symbol>
  <symbol id="n" overflow="visible">
   <path d="m2.1875-5.9688v-9.3438h4.9219v1.5312c0 0.83594-0.007813 1.875-0.015625 3.125-0.011719 1.25-0.015625 2.0859-0.015625 2.5 0 1.2422 0.03125 2.1328 0.09375 2.6719 0.070313 0.54297 0.17969 0.93359 0.32812 1.1719 0.20703 0.32422 0.47266 0.57422 0.79688 0.75 0.32031 0.16797 0.69141 0.25 1.1094 0.25 1.0195 0 1.8203-0.39062 2.4062-1.1719 0.58203-0.78125 0.875-1.8672 0.875-3.2656v-7.5625h4.8906v15.312h-4.8906v-2.2188c-0.74219 0.89844-1.5234 1.5586-2.3438 1.9844-0.82422 0.41406-1.7344 0.625-2.7344 0.625-1.7617 0-3.1055-0.53906-4.0312-1.625-0.92969-1.082-1.3906-2.6602-1.3906-4.7344z"/>
  </symbol>
  <symbol id="m" overflow="visible">
   <path d="m17.75-9.3281v9.3281h-4.9219v-7.1406c0-1.3203-0.03125-2.2344-0.09375-2.7344s-0.16797-0.86719-0.3125-1.1094c-0.1875-0.3125-0.44922-0.55469-0.78125-0.73438-0.32422-0.17578-0.69531-0.26562-1.1094-0.26562-1.0234 0-1.8242 0.39844-2.4062 1.1875-0.58594 0.78125-0.875 1.8711-0.875 3.2656v7.5312h-4.8906v-15.312h4.8906v2.2344c0.73828-0.88281 1.5195-1.5391 2.3438-1.9688 0.83203-0.42578 1.75-0.64062 2.75-0.64062 1.7695 0 3.1133 0.54688 4.0312 1.6406 0.91406 1.0859 1.375 2.6562 1.375 4.7188z"/>
  </symbol>
  <symbol id="l" overflow="visible">
   <path d="m2.5781-20.406h8.7344c2.5938 0 4.582 0.57812 5.9688 1.7344 1.3945 1.1484 2.0938 2.7891 2.0938 4.9219 0 2.1367-0.69922 3.7812-2.0938 4.9375-1.3867 1.1562-3.375 1.7344-5.9688 1.7344h-3.4844v7.0781h-5.25zm5.25 3.8125v5.7031h2.9219c1.0195 0 1.8047-0.25 2.3594-0.75 0.5625-0.5 0.84375-1.2031 0.84375-2.1094 0-0.91406-0.28125-1.6172-0.84375-2.1094-0.55469-0.48828-1.3398-0.73438-2.3594-0.73438z"/>
  </symbol>
  <symbol id="k" overflow="visible">
   <path d="m2.3594-15.312h4.8906v15.031c0 2.0508-0.49609 3.6172-1.4844 4.7031-0.98047 1.082-2.4062 1.625-4.2812 1.625h-2.4219v-3.2188h0.85938c0.92578 0 1.5625-0.21094 1.9062-0.625 0.35156-0.41797 0.53125-1.2461 0.53125-2.4844zm0-5.9688h4.8906v4h-4.8906z"/>
  </symbol>
  <symbol id="j" overflow="visible">
   <path d="m14.719-14.828v3.9844c-0.65625-0.45703-1.3242-0.79688-2-1.0156-0.66797-0.21875-1.3594-0.32812-2.0781-0.32812-1.3672 0-2.4336 0.40234-3.2031 1.2031-0.76172 0.79297-1.1406 1.9062-1.1406 3.3438 0 1.4297 0.37891 2.543 1.1406 3.3438 0.76953 0.79297 1.8359 1.1875 3.2031 1.1875 0.75781 0 1.4844-0.10938 2.1719-0.32812 0.6875-0.22656 1.3203-0.56641 1.9062-1.0156v4c-0.76172 0.28125-1.5391 0.48828-2.3281 0.625-0.78125 0.14453-1.5742 0.21875-2.375 0.21875-2.7617 0-4.9219-0.70703-6.4844-2.125-1.5547-1.4141-2.3281-3.3828-2.3281-5.9062 0-2.5312 0.77344-4.5039 2.3281-5.9219 1.5625-1.4141 3.7227-2.125 6.4844-2.125 0.80078 0 1.5938 0.074219 2.375 0.21875 0.78125 0.13672 1.5547 0.35156 2.3281 0.64062z"/>
  </symbol>
 </defs>
 <g>
  <path d="m433.84 202.95c0 3.0898 2.5078 5.6016 5.6016 5.6016 3.0898 0 5.6016-2.5078 5.6016-5.6016 0-5.2422-2.1016-10.074-5.918-13.621-3.5664-3.3047-10.375-7.0547-22.52-6.1484-3.0859 0.23047-5.3984 2.918-5.1641 6.0039 0.23047 3.0781 2.8711 5.375 6.0039 5.1641 6.3242-0.48047 11.328 0.66016 14.062 3.1914 1.9297 1.793 2.332 3.9297 2.332 5.4102z"/>
  <path d="m386.9 118.89c-18.273-4.625-24.051-14.707-24.289-15.137-0.98438-1.7812-2.8711-2.9062-4.9062-2.9062-3.0898 0-5.6016 2.5078-5.6016 5.6016 0 1.0352 0.28125 2 0.76563 2.8281 1.5 2.6602 9.4883 14.953 31.289 20.461 4.5938 1.1641 10.07 3.6445 10.07 8.8633 0 3.0898 2.5078 5.6016 5.6016 5.6016 3.0898 0 5.6016-2.5078 5.6016-5.6016-0.007813-9.5469-6.7617-16.734-18.531-19.711z"/>
  <path d="m126 480.02c0 13.578 11.047 24.629 24.633 24.629h398.73c13.586 0 24.633-11.047 24.633-24.629 0-11.09-7.4102-20.371-17.496-23.453 10.426-5.7891 17.5-16.898 17.5-29.641 0-12.84-7.1797-24.039-17.734-29.785 10.215-3.0078 17.734-12.359 17.734-23.531 0-10.891-7.1523-20.047-16.973-23.289 10.129-5.8672 16.973-16.801 16.973-29.32 0-13.508-7.9648-25.16-19.426-30.605 11.086-2.4023 19.426-12.266 19.426-24.059 0-13.586-11.047-24.633-24.633-24.633h-95.371c11.219-9.0234 18.504-22.617 18.504-37.52 0-24.824-18.664-45.375-42.699-48.352 4.1484-6.418 6.4023-13.945 6.4023-21.84 0-19.621-14.27-34.316-39.148-40.305-29.547-7.1133-30.895-29.02-30.953-31.488-0.066406-3.0391-2.5586-5.5312-5.6016-5.5312-22.52 0-40.84 18.316-40.84 40.84 0 3 0.33203 5.957 0.98047 8.8594-22.469 0.6875-40.531 19.176-40.531 41.805 0 6.6094 1.5781 13.074 4.543 18.898-20.148 3.6836-35.469 21.371-35.469 42.57 0 12.723 5.5547 24.148 14.332 32.078h-112.88c-13.586 0-24.633 11.047-24.633 24.633 0 12.453 9.3242 22.668 21.336 24.297-11.188 5.543-18.918 17.051-18.918 30.359 0 12.18 6.4805 22.848 16.156 28.824-10.645 2.7031-18.574 12.297-18.574 23.777 0 11.762 8.3008 21.594 19.336 24.023-10.098 5.875-16.918 16.789-16.918 29.289 0 12.398 6.7148 23.234 16.676 29.141-10.914 2.5312-19.094 12.281-19.094 23.957zm382.62-65.574c-2.6758-6.7305-7.4492-12.387-13.508-16.199h27.016c-6.0664 3.8047-10.832 9.4688-13.508 16.199zm-31.484 35.172c-12.512 0-22.691-10.18-22.691-22.691 0-12.516 10.18-22.695 22.691-22.695 12.516 0 22.695 10.18 22.695 22.695-0.003907 12.512-10.184 22.691-22.695 22.691zm-31.48-35.172c-2.6758-6.7305-7.4492-12.387-13.508-16.199h27.016c-6.0625 3.8047-10.832 9.4688-13.508 16.199zm-31.484 35.172c-12.512 0-22.691-10.18-22.691-22.691 0-12.516 10.18-22.695 22.691-22.695 12.516 0 22.695 10.18 22.695 22.695 0 12.512-10.18 22.691-22.695 22.691zm-31.484-35.172c-2.6758-6.7305-7.4492-12.387-13.508-16.199h27.016c-6.0586 3.8047-10.824 9.4688-13.508 16.199zm-31.48 35.172c-12.516 0-22.695-10.18-22.695-22.691 0-12.516 10.18-22.695 22.695-22.695 12.516 0 22.695 10.18 22.695 22.695 0 12.512-10.18 22.691-22.695 22.691zm-31.484-35.172c-2.6758-6.7305-7.4492-12.387-13.508-16.199h27.016c-6.0586 3.8047-10.824 9.4688-13.508 16.199zm-31.477 35.172c-12.516 0-22.695-10.18-22.695-22.691 0-12.516 10.18-22.695 22.695-22.695 12.512 0 22.691 10.18 22.691 22.695 0 12.512-10.184 22.691-22.691 22.691zm-31.484-35.172c-2.6758-6.7305-7.4492-12.387-13.508-16.199h27.016c-6.0664 3.8047-10.832 9.4688-13.508 16.199zm-31.484 35.172c-12.516 0-22.695-10.18-22.695-22.691 0-12.516 10.18-22.695 22.695-22.695 12.512 0 22.691 10.18 22.691 22.695 0 12.512-10.18 22.691-22.691 22.691zm-31.48-35.172c-2.6758-6.7305-7.4492-12.387-13.508-16.199h27.016c-6.0625 3.8047-10.832 9.4688-13.508 16.199zm0 24.965c2.625 6.5977 7.2578 12.176 13.148 15.98h-26.293c5.8906-3.8125 10.516-9.3828 13.145-15.98zm62.965 0c2.625 6.5977 7.2578 12.176 13.148 15.98h-26.293c5.8867-3.8125 10.52-9.3828 13.145-15.98zm62.961 0c2.625 6.5977 7.2578 12.176 13.148 15.98h-26.293c5.8906-3.8125 10.52-9.3828 13.145-15.98zm62.965 0c2.625 6.5977 7.2539 12.176 13.145 15.98h-26.293c5.8984-3.8125 10.523-9.3828 13.148-15.98zm62.969 0c2.625 6.5977 7.2539 12.176 13.145 15.98h-26.293c5.8906-3.8125 10.52-9.3828 13.148-15.98zm62.965 0c2.625 6.5977 7.2539 12.176 13.145 15.98h-26.293c5.8906-3.8125 10.523-9.3828 13.148-15.98zm31.477 10.207c-12.512 0-22.691-10.18-22.691-22.691 0-12.516 10.18-22.695 22.691-22.695 12.516 0 22.695 10.18 22.695 22.695 0.003906 12.512-10.176 22.691-22.695 22.691zm-31.477-141.1c-3.0117-7.5664-8.6562-13.793-15.812-17.543h31.625c-7.1602 3.75-12.805 9.9766-15.812 17.543zm-31.484 35.172c-12.512 0-22.691-10.18-22.691-22.691 0-12.516 10.18-22.695 22.691-22.695 12.516 0 22.695 10.18 22.695 22.695-0.003907 12.512-10.184 22.691-22.695 22.691zm-31.48-35.172c-3.0117-7.5664-8.6562-13.793-15.812-17.543h31.625c-7.1602 3.75-12.801 9.9766-15.812 17.543zm-31.484 35.172c-12.512 0-22.691-10.18-22.691-22.691 0-12.516 10.18-22.695 22.691-22.695 12.516 0 22.695 10.18 22.695 22.695 0 12.512-10.18 22.691-22.695 22.691zm-31.484-35.172c-3.0117-7.5664-8.6562-13.793-15.812-17.543h31.625c-7.1523 3.75-12.797 9.9766-15.812 17.543zm-31.48 35.172c-12.516 0-22.695-10.18-22.695-22.691 0-12.516 10.18-22.695 22.695-22.695 12.516 0 22.695 10.18 22.695 22.695 0 12.512-10.18 22.691-22.695 22.691zm-31.484-35.172c-3.0117-7.5664-8.6523-13.793-15.809-17.543h31.625c-7.1602 3.75-12.805 9.9766-15.816 17.543zm-31.477 35.172c-12.516 0-22.695-10.18-22.695-22.691 0-12.516 10.18-22.695 22.695-22.695 12.512 0 22.691 10.18 22.691 22.695 0 12.512-10.184 22.691-22.691 22.691zm-31.484-35.172c-3.0117-7.5664-8.6523-13.793-15.809-17.543h31.625c-7.1641 3.75-12.809 9.9766-15.816 17.543zm-31.484 35.172c-12.516 0-22.695-10.18-22.695-22.691 0-12.516 10.18-22.695 22.695-22.695 12.512 0 22.691 10.18 22.691 22.695 0 12.512-10.18 22.691-22.691 22.691zm-31.48-35.172c-3.0117-7.5664-8.6523-13.793-15.809-17.543h31.625c-7.1602 3.75-12.805 9.9766-15.816 17.543zm0 24.965c2.5156 6.3164 6.8555 11.711 12.395 15.5h-24.781c5.5312-3.7891 9.8711-9.1836 12.387-15.5zm62.965 0c2.5156 6.3164 6.8555 11.711 12.395 15.5h-24.781c5.5312-3.7891 9.8711-9.1836 12.387-15.5zm62.961 0c2.5156 6.3164 6.8555 11.711 12.395 15.5h-24.781c5.5391-3.7891 9.8711-9.1836 12.387-15.5zm62.965 0c2.5156 6.3164 6.8555 11.711 12.387 15.5h-24.781c5.543-3.7891 9.8828-9.1836 12.395-15.5zm62.969 0c2.5156 6.3164 6.8555 11.711 12.387 15.5h-24.781c5.5391-3.7891 9.8789-9.1836 12.395-15.5zm62.965 0c2.5156 6.3164 6.8555 11.711 12.387 15.5h-24.781c5.5391-3.7891 9.8789-9.1836 12.395-15.5zm54.176-12.484c0 12.512-10.18 22.691-22.695 22.691-12.512 0-22.691-10.18-22.691-22.691 0-12.516 10.18-22.695 22.691-22.695 12.516 0 22.695 10.18 22.695 22.695zm-302.43-111.37c0-17.684 14.391-32.078 32.078-32.078 0.47656 0 0.94531 0.039063 1.9609 0.10547 2.2227 0.18359 4.3867-1.082 5.3828-3.125 1.0039-2.0312 0.67578-4.4688-0.82422-6.1641-4.9453-5.6094-7.668-12.789-7.668-20.211 0-16.891 13.738-30.625 30.625-30.625 1.8438 0 3.7617 0.19141 5.7188 0.55859 2.0781 0.40234 4.1875-0.41016 5.4766-2.082 1.2891-1.668 1.5273-3.9219 0.62891-5.8242-1.9141-4.0391-2.8906-8.3047-2.8906-12.691 0-14.684 10.73-26.902 24.758-29.238 2.0156 9.9688 9.6836 29.293 38.812 36.309 9.1914 2.2109 30.57 9.5078 30.57 29.418 0 9.1602-4.1992 17.629-11.531 23.23-2.0391 1.5625-2.7539 4.3047-1.7422 6.6641 1.0117 2.3516 3.5 3.6914 6.043 3.3086 2.2188-0.35938 4.1836-0.53906 6.0156-0.53906 20.688 0 37.52 16.832 37.52 37.52 0 20.34-17.742 37.52-38.742 37.52l-130.11 0.007812c-17.691 0.011719-32.078-14.375-32.078-32.062zm-123.17 56.707c0-7.4102 6.0273-13.434 13.434-13.434h398.73c7.4102 0 13.434 6.0273 13.434 13.434 0 7.4102-6.0273 13.434-13.434 13.434h-398.73c-7.4062 0-13.434-6.0234-13.434-13.434zm25.117 31.965c12.512 0 22.691 10.18 22.691 22.695 0 12.512-10.18 22.691-22.691 22.691-12.516 0-22.695-10.18-22.695-22.691 0.003906-12.516 10.18-22.695 22.695-22.695zm-25.117 75.309c0-7.4102 6.0273-13.434 13.434-13.434h398.73c7.4102 0 13.434 6.0273 13.434 13.434 0 7.4023-6.0273 13.43-13.434 13.43h-398.73c-7.4062 0.003907-13.434-6.0195-13.434-13.43zm25.117 30.621c12.512 0 22.691 10.18 22.691 22.695 0 12.512-10.18 22.691-22.691 22.691-12.516 0-22.695-10.18-22.695-22.691 0.003906-12.516 10.18-22.695 22.695-22.695zm-11.684 62.355h398.73c7.4102 0 13.434 6.0273 13.434 13.434 0 7.4023-6.0273 13.43-13.434 13.43h-398.73c-7.4102 0-13.434-6.0273-13.434-13.43 0-7.4023 6.0273-13.434 13.434-13.434z"/>
  <use x="70" y="644" xlink:href="#s"/>
  <use x="90.550781" y="644" xlink:href="#c"/>
  <use x="104.359375" y="644" xlink:href="#a"/>
  <use x="123.347656" y="644" xlink:href="#f"/>
  <use x="142.242188" y="644" xlink:href="#b"/>
  <use x="155.628906" y="644" xlink:href="#a"/>
  <use x="174.617188" y="644" xlink:href="#e"/>
  <use x="204.410156" y="644" xlink:href="#i"/>
  <use x="224.453125" y="644" xlink:href="#h"/>
  <use x="252.453125" y="644" xlink:href="#g"/>
  <use x="280.3125" y="644" xlink:href="#f"/>
  <use x="299.210938" y="644" xlink:href="#e"/>
  <use x="319.25" y="644" xlink:href="#a"/>
  <use x="70" y="672" xlink:href="#r"/>
  <use x="82.183594" y="672" xlink:href="#c"/>
  <use x="95.992188" y="672" xlink:href="#d"/>
  <use x="115.226562" y="672" xlink:href="#q"/>
  <use x="154.152344" y="672" xlink:href="#b"/>
  <use x="167.535156" y="672" xlink:href="#p"/>
  <use x="187.46875" y="672" xlink:href="#a"/>
  <use x="216.207031" y="672" xlink:href="#o"/>
  <use x="239.640625" y="672" xlink:href="#d"/>
  <use x="258.878906" y="672" xlink:href="#n"/>
  <use x="278.8125" y="672" xlink:href="#m"/>
  <use x="308.492188" y="672" xlink:href="#l"/>
  <use x="329.015625" y="672" xlink:href="#c"/>
  <use x="342.820312" y="672" xlink:href="#d"/>
  <use x="362.058594" y="672" xlink:href="#k"/>
  <use x="371.65625" y="672" xlink:href="#a"/>
  <use x="390.648438" y="672" xlink:href="#j"/>
  <use x="407.242188" y="672" xlink:href="#b"/>
 </g>
</svg>
