<?xml version="1.0" standalone="no"?>
<!DOCTYPE svg PUBLIC "-//W3C//DTD SVG 20010904//EN"
 "http://www.w3.org/TR/2001/REC-SVG-20010904/DTD/svg10.dtd">
<svg version="1.0" xmlns="http://www.w3.org/2000/svg"
 width="340.000000pt" height="453.000000pt" viewBox="0 0 340.000000 453.000000"
 preserveAspectRatio="xMidYMid meet">

<g transform="translate(0.000000,453.000000) scale(0.100000,-0.100000)"
fill="#000000" stroke="white" strokeWidth="1" >
<path d="M1640 4418 c110 -190 133 -316 77 -430 -49 -101 -105 -139 -379 -267
-191 -88 -277 -198 -246 -318 24 -97 168 -204 320 -237 l63 -14 -85 -1 c-155
-1 -271 40 -351 126 -76 81 -96 179 -53 267 8 16 12 31 11 33 -8 7 -115 -21
-185 -48 -210 -83 -354 -239 -382 -415 -12 -74 -4 -125 30 -194 109 -216 348
-351 670 -378 l95 -8 -60 -15 c-96 -23 -340 -18 -440 10 -97 26 -241 95 -314
150 -30 23 -59 41 -65 41 -6 0 -45 -28 -86 -63 -267 -224 -331 -504 -173 -757
36 -57 131 -160 195 -211 l38 -30 42 30 c114 81 240 56 329 -66 l40 -54 39 53
c118 163 301 151 408 -27 l40 -66 35 58 c63 104 127 147 217 147 70 1 136 -35
188 -104 20 -27 39 -49 42 -49 3 0 23 24 46 52 54 69 112 102 184 101 90 0
154 -43 217 -147 l35 -58 40 66 c69 115 166 162 270 131 61 -19 91 -42 141
-109 l36 -47 40 54 c89 121 215 145 329 65 l42 -30 38 30 c114 92 209 213 252
326 33 85 34 244 2 329 -62 169 -218 333 -423 444 l-67 37 5 65 c6 77 -14 170
-53 236 -54 92 -172 168 -312 202 -56 13 -72 21 -68 32 3 8 15 42 27 75 31 83
38 279 15 380 -73 311 -375 562 -816 680 -52 14 -96 25 -97 25 -1 0 25 -46 57
-102z"/>
<path d="M445 1598 c-45 -16 -103 -76 -122 -127 -38 -97 -32 -124 170 -745
114 -348 197 -586 214 -614 17 -28 48 -59 77 -77 l49 -30 857 -3 857 -2 54 28
c85 44 105 82 213 415 52 161 136 420 187 577 102 312 110 362 76 451 -21 55
-79 112 -130 129 -74 23 -156 -16 -198 -96 -14 -27 -68 -180 -120 -341 -51
-161 -95 -290 -97 -289 -1 2 20 111 48 242 40 184 50 249 45 284 -31 211 -244
280 -342 112 -22 -37 -45 -126 -106 -402 l-77 -355 5 150 c3 83 8 234 12 337
l6 186 -27 56 c-61 125 -181 160 -276 79 -74 -62 -82 -110 -101 -575 -7 -170
-15 -308 -19 -308 -4 0 -12 138 -19 308 -16 394 -23 462 -56 517 -85 145 -257
130 -325 -27 -25 -58 -25 -6 -5 -573 l5 -150 -78 355 c-60 276 -83 366 -105
402 -98 168 -311 99 -342 -112 -5 -35 5 -100 45 -284 28 -131 49 -240 48 -242
-2 -2 -44 122 -92 274 -93 289 -123 372 -137 372 -4 0 -10 9 -14 20 -14 46
-120 80 -180 58z"/>
</g>
</svg>
