<?xml version="1.0" encoding="UTF-8"?>
<svg xmlns="http://www.w3.org/2000/svg" xmlns:xlink="http://www.w3.org/1999/xlink" width="300px" height="325px" viewBox="0 0 300 325" version="1.1">
<g id="surface1">
<path style={{stroke:"none",fillRule:"nonzero",fill:"rgb(100%,80%,0%)",fillOpacity:"1"}} d="M 144.242188 0 C 134.746094 8.339844 123.351562 15.980469 118.199219 27.835938 C 112.726562 29.464844 107.378906 31.4375 102.074219 33.558594 C 101.25 32.917969 100.21875 32.648438 99.175781 32.667969 C 96.054688 32.726562 92.875 35.402344 95.160156 38.5 C 88.667969 42.21875 86.46875 50.382812 88.605469 57.28125 C 82.671875 54.574219 76.167969 52.515625 69.585938 53.5625 C 68.515625 52.953125 67.335938 52.21875 66.109375 52.238281 C 65.699219 52.246094 65.285156 52.335938 64.867188 52.542969 C 64.703125 52.648438 64.359375 52.847656 64.195312 52.949219 C 63.335938 53.550781 63.101562 54.582031 62.828125 55.523438 C 52.980469 59.4375 49.976562 72.015625 56.636719 79.976562 C 48.550781 78.222656 40.3125 79.457031 32.523438 81.855469 C 32.042969 81.761719 31.550781 81.726562 31.0625 81.746094 C 28.945312 81.824219 26.941406 82.960938 26.652344 85.253906 C 23.761719 88.113281 20.054688 91.140625 20.53125 95.699219 C 19.484375 101.285156 25.03125 104.429688 27.804688 108.230469 C 24.78125 109.445312 21.761719 110.746094 18.613281 111.613281 C 17.78125 111.089844 16.777344 110.808594 15.792969 110.789062 C 13.628906 110.742188 11.574219 111.941406 11.699219 114.511719 C 7.800781 118.539062 1.722656 121.148438 0 127.074219 L 0 131.394531 C 2.863281 138.355469 9.742188 142.339844 16.261719 145.359375 L 16.175781 145.773438 C 13.535156 154.496094 15.070312 164.375 20.539062 171.714844 C 20.273438 171.710938 19.96875 171.683594 19.664062 171.679688 C 18.757812 171.65625 17.875 171.785156 18.175781 173.015625 C 25.816406 213.6875 33.488281 254.367188 40.988281 295.070312 C 41.640625 300.308594 43.214844 305.429688 43.359375 310.722656 C 46.9375 314.75 52.613281 315.648438 57.554688 317.03125 C 61.996094 318.335938 66.589844 319.0625 71.179688 319.660156 C 77.097656 320.359375 83 321.207031 88.925781 321.84375 C 93.765625 322.378906 98.613281 322.773438 103.480469 322.882812 C 108.84375 323.335938 114.222656 323.613281 119.601562 323.824219 C 124.320312 324.253906 129.066406 324.40625 133.808594 324.441406 C 139.289062 324.410156 144.792969 323.996094 150.257812 324.566406 C 150.601562 324.628906 151.285156 324.746094 151.625 324.804688 L 156.605469 324.804688 C 159.246094 324.542969 161.898438 324.386719 164.554688 324.367188 C 170.085938 324.386719 175.605469 324.007812 181.132812 323.824219 C 186.074219 323.765625 191.085938 323.882812 195.957031 322.917969 C 201.988281 322.695312 208.007812 322.210938 214.019531 321.652344 C 218.09375 321.25 222.183594 320.847656 226.214844 320.074219 C 232.25 319.222656 238.226562 317.996094 244.1875 316.734375 C 248.457031 315.457031 253.222656 314.328125 256.40625 310.984375 C 259.539062 289.847656 264.058594 268.921875 267.75 247.867188 C 272.304688 223.195312 277.03125 198.546875 281.46875 173.855469 C 282.203125 172.3125 281.875 171.425781 280.488281 171.191406 C 286.40625 163.863281 286.691406 153.902344 284.726562 145.070312 C 290.429688 141.445312 297.3125 138.292969 299.804688 131.445312 L 299.804688 127.078125 C 295.425781 116.421875 283.226562 112.886719 273.453125 108.742188 C 276.089844 105.5 280.164062 102.378906 279.273438 97.652344 C 279.609375 90.878906 273.082031 87.5625 268.636719 83.871094 C 268.402344 81.742188 266.707031 80.851562 264.8125 80.777344 C 263.339844 80.71875 261.742188 81.15625 260.625 81.882812 C 254.6875 80.789062 248.652344 80.933594 242.71875 81.980469 C 251.800781 72.847656 244.652344 58.074219 232.9375 56.058594 C 224.675781 53.242188 216.5625 57.007812 208.984375 60.007812 C 216.664062 50.40625 208.613281 38.527344 198.84375 34.589844 C 199.773438 32.019531 197.699219 30.421875 195.507812 30.382812 C 194.359375 30.359375 193.175781 30.765625 192.371094 31.679688 C 183.25 26.808594 172.300781 27.578125 163.167969 22.828125 C 152.949219 20.160156 141.503906 12.246094 145.132812 0.00390625 Z M 144.242188 0 "/>
<path style={{stroke:"none",fillRule:"nonzero",fill:"rgb(100%,93.333333%,66.666667%)",fillOpacity:"1"}} d="M 144.242188 0 C 134.746094 8.339844 123.351562 15.980469 118.199219 27.835938 C 112.726562 29.464844 107.378906 31.4375 102.074219 33.558594 C 103.433594 35.078125 103.804688 36.976562 102.511719 38.667969 C 104.601562 38.683594 107.707031 35.539062 108.746094 38.65625 C 114.375 51.6875 128.449219 57.683594 140.703125 61.503906 C 127.015625 60.882812 111.4375 63.707031 99.28125 55.988281 C 93.023438 51.789062 96.585938 43.492188 99.9375 39.910156 C 98.222656 39.992188 96.617188 39.347656 95.160156 38.5 C 88.667969 42.21875 86.46875 50.382812 88.605469 57.28125 C 82.671875 54.574219 76.167969 52.515625 69.585938 53.5625 C 71.34375 58.011719 64.230469 59.625 62.828125 55.523438 C 52.980469 59.4375 49.976562 72.015625 56.636719 79.976562 C 48.550781 78.222656 40.3125 79.457031 32.523438 81.855469 C 40.003906 85.640625 28.664062 92.167969 26.652344 85.253906 C 23.761719 88.113281 20.054688 91.140625 20.53125 95.699219 C 19.484375 101.285156 25.03125 104.429688 27.804688 108.230469 C 24.78125 109.445312 21.761719 110.746094 18.613281 111.613281 C 19.644531 113.039062 19.574219 114.730469 18.632812 116.1875 C 21.457031 115.632812 24.277344 114.027344 27.1875 115.207031 C 58.433594 126.792969 89.789062 138.734375 122.726562 144.632812 C 89.097656 144.9375 55.464844 142.125 21.851562 141.136719 C 16.382812 140.652344 12.496094 136.894531 8.65625 133.585938 C 4.867188 134.917969 0.597656 130.464844 4.300781 127.503906 C 4.953125 127.109375 5.6875 126.816406 6.457031 126.777344 C 6.976562 126.785156 7.5 126.804688 8.023438 126.835938 C 9.105469 122.5625 14.925781 119.757812 16.019531 116.855469 C 14.179688 117.023438 12.554688 116.144531 11.699219 114.511719 C 7.804688 118.539062 1.722656 121.148438 0 127.074219 L 0 131.394531 C 2.863281 138.355469 9.742188 142.339844 16.261719 145.359375 C 78.507812 149.035156 142.066406 151.507812 203.59375 149.734375 C 145.503906 146.40625 85.316406 135.304688 31.703125 110.199219 C 31.339844 109.738281 27.433594 108.640625 29.359375 108.375 C 110.425781 138.128906 198.058594 151.777344 284.296875 144.8125 C 251.925781 153.144531 216.636719 152.707031 183.007812 155.019531 C 127.269531 155.695312 71.476562 152.917969 16.175781 145.773438 C 13.535156 154.496094 15.070312 164.375 20.539062 171.714844 C 22.691406 171.824219 24.839844 172.046875 27 172.183594 C 24.949219 170.253906 17.765625 164.855469 20.335938 163.355469 C 17.082031 154.523438 33.335938 159.242188 25.71875 164.074219 C 38.042969 168.078125 51.390625 169.765625 64.203125 172.285156 C 65.761719 168.992188 71.558594 169.484375 71.484375 173.519531 C 78.246094 174.722656 85.03125 175.878906 91.871094 176.554688 C 92.96875 176.644531 94.074219 176.777344 95.160156 176.960938 C 113.828125 179.675781 132.714844 180.496094 151.558594 180.820312 C 151.988281 180.5 152.425781 180.199219 152.882812 179.917969 C 154.550781 179.613281 156.285156 179.703125 157.886719 180.28125 C 200.171875 180.539062 242.054688 172.269531 282.816406 161.589844 C 281.851562 165.246094 279.484375 168.332031 277.238281 171.308594 C 278.050781 171.277344 279.679688 171.222656 280.488281 171.191406 C 286.40625 163.863281 286.691406 153.902344 284.726562 145.070312 C 290.429688 141.445312 297.316406 138.292969 299.804688 131.445312 L 299.804688 127.078125 C 295.425781 116.421875 283.226562 112.886719 273.453125 108.742188 C 276.089844 105.5 280.167969 102.378906 279.273438 97.652344 C 279.609375 90.878906 273.082031 87.5625 268.636719 83.871094 C 268.890625 90.523438 256.835938 87.664062 260.625 81.886719 C 254.6875 80.789062 248.652344 80.933594 242.71875 81.984375 C 251.800781 72.847656 244.652344 58.078125 232.9375 56.058594 C 224.675781 53.242188 216.5625 57.007812 208.984375 60.007812 C 216.664062 50.40625 208.613281 38.53125 198.84375 34.589844 C 196.523438 37.265625 190.71875 35.660156 192.375 31.683594 C 183.253906 26.808594 172.300781 27.582031 163.167969 22.832031 C 152.949219 20.15625 141.503906 12.242188 145.132812 0 Z M 151.183594 19.621094 C 154.535156 19.695312 157.335938 24.71875 152.746094 25.90625 C 148.644531 28.894531 144.0625 21.074219 149.308594 20.144531 C 149.921875 19.765625 150.5625 19.609375 151.183594 19.621094 Z M 136.285156 20.546875 C 146.699219 27.320312 158.859375 30.472656 170.429688 34.621094 C 172.726562 32.875 177.789062 33.324219 178.195312 36.707031 C 184.464844 39.878906 196.457031 40.238281 197.007812 48.90625 C 190.195312 55.625 178.878906 52.679688 170.386719 50.878906 C 159.335938 51.53125 147.464844 49.320312 138.503906 42.507812 C 135.632812 43.28125 132.105469 40.390625 133.761719 37.488281 L 133.667969 37.132812 C 129.425781 32.476562 131.757812 24.394531 136.285156 20.546875 Z M 117.808594 28.855469 C 115.210938 37.816406 122.730469 47.941406 131.820312 51.222656 C 156.40625 61.355469 183.800781 60.355469 209.875 60.464844 C 202.570312 71.96875 189.152344 78.535156 176.546875 83.195312 C 147.238281 92.726562 115.683594 92.195312 85.433594 88.183594 C 86.25 89.5 88.339844 89.628906 89.710938 90.367188 C 147.964844 112.015625 211.679688 113.3125 272.914062 108.21875 C 233.273438 114.964844 191.320312 115.539062 150.976562 110.609375 C 118.296875 106.402344 85.992188 97.367188 57.632812 80.253906 C 82.910156 81.921875 108.546875 88.015625 134.25 86.816406 C 159.84375 85.671875 187.523438 80.976562 206.992188 62.925781 C 208.238281 62.3125 208.304688 59.527344 205.640625 61.441406 C 174.496094 65.757812 142.796875 70.414062 111.445312 65.742188 C 104.933594 64.214844 97.574219 63.082031 92.285156 58.976562 C 122.933594 71.742188 157.363281 65.542969 189.398438 62.367188 C 169.21875 60.742188 146.089844 60.941406 127.425781 50.246094 C 120.035156 46.527344 113.929688 36.8125 117.808594 28.859375 Z M 72.609375 62.589844 C 73.144531 62.597656 73.664062 62.699219 74.148438 62.90625 C 91.191406 70.769531 109.9375 74.8125 128.652344 75.515625 C 129.257812 71.027344 137.078125 71.011719 136.96875 75.890625 C 142.027344 76.632812 148.453125 75.152344 152.914062 76.539062 C 146.820312 77.167969 140.753906 78.03125 134.621094 78.1875 C 133.433594 78.222656 132.246094 78.207031 131.070312 78.136719 C 116.148438 78.65625 101.328125 76.757812 86.542969 75.210938 C 81.410156 76.835938 76.144531 75.929688 71.214844 74.140625 C 66.601562 76.925781 61.484375 70.382812 67.050781 68.105469 C 66.503906 65.191406 69.722656 62.539062 72.609375 62.589844 Z M 227.574219 63.980469 C 230.464844 64.074219 233.390625 66.328125 232.378906 69.613281 C 232.234375 75.136719 225.40625 82.855469 231.941406 86.875 C 241.535156 90.34375 252.414062 88.023438 261.714844 92.632812 C 263.527344 93.558594 265.75 95.125 265.597656 97.4375 C 254.597656 100.085938 243.3125 101.578125 232.019531 102.058594 C 230.613281 102.484375 229.128906 102.484375 227.683594 102.5 C 213.886719 103.269531 198.601562 101.140625 185.496094 101.800781 C 184.628906 105.039062 178.652344 104.207031 178.972656 100.617188 C 172.886719 99.757812 166.753906 99.332031 160.671875 98.496094 C 158.816406 99.941406 155.652344 99.9375 154.34375 97.78125 C 153.121094 93.546875 160.503906 92.746094 161.265625 96.597656 C 184.492188 92.792969 206.601562 82.050781 223.632812 65.777344 C 224.558594 64.476562 226.0625 63.933594 227.574219 63.980469 Z M 167.378906 68.828125 C 168.945312 68.792969 170.566406 69.625 171.308594 71.023438 C 173.113281 75.59375 164.578125 76.867188 163.742188 72.886719 C 162.757812 70.746094 164.953125 69.242188 166.710938 68.898438 C 166.933594 68.855469 167.15625 68.832031 167.378906 68.828125 Z M 45.84375 87.792969 C 46.957031 87.800781 48.015625 87.96875 48.933594 88.320312 C 77.242188 103.550781 108.613281 112.125 140.105469 117.644531 C 140.578125 116.960938 141.121094 116.332031 141.679688 115.722656 C 141.886719 115.695312 142.300781 115.625 142.507812 115.597656 C 144.773438 115.222656 147.367188 116.03125 147.660156 118.558594 C 161.3125 120.558594 175.144531 121.382812 188.863281 122.375 C 189.007812 121.875 189.175781 121.382812 189.371094 120.898438 C 189.429688 120.273438 189.777344 119.953125 190.421875 119.9375 C 192.546875 118.839844 195.871094 119.703125 196.0625 122.386719 C 212.898438 122.277344 230.035156 122.992188 246.628906 119.917969 C 245.753906 116.078125 252.023438 115.195312 253.132812 118.664062 C 261.980469 116.109375 270.890625 118.609375 279.34375 120.597656 C 279.398438 120.304688 279.492188 119.722656 279.542969 119.429688 C 280.386719 118.191406 283.257812 117.3125 284.132812 118.382812 C 288.015625 118.898438 286.777344 124.492188 283.113281 123.957031 C 286.945312 127.179688 285.660156 135.773438 279.757812 135.023438 C 286.246094 140.734375 271.660156 144.453125 273.367188 136.636719 C 260.132812 135.984375 246.816406 138.363281 233.511719 138.082031 C 231.53125 139.324219 228.984375 139.089844 226.941406 138.113281 C 205.660156 137.542969 184.382812 136.003906 163.296875 133.007812 C 162.027344 136.074219 156.59375 136.40625 155.777344 132.980469 C 154.875 133.367188 155.535156 131.664062 154.664062 131.765625 C 139.289062 129.121094 123.894531 126.320312 108.78125 122.449219 C 106.550781 123.296875 103.699219 123.171875 102.328125 120.980469 C 93.582031 119.015625 84.992188 116.449219 76.363281 114.066406 C 75.769531 119.761719 64.382812 118.363281 67.90625 112.167969 C 58.136719 105.59375 43.191406 110.007812 36.085938 98.898438 C 32.183594 92.453125 39.835938 87.757812 45.847656 87.792969 Z M 57.65625 154.984375 C 58.105469 154.992188 58.476562 155.097656 58.601562 155.332031 C 66.636719 160.273438 50.050781 163.039062 55.226562 155.953125 C 55.28125 155.40625 56.664062 154.964844 57.65625 154.984375 Z M 249.199219 158.78125 C 252.207031 158.734375 255.304688 162.457031 251.917969 164.441406 C 248.175781 167.34375 243.246094 161.039062 247.953125 159.277344 C 248.113281 159.171875 248.441406 158.957031 248.601562 158.84375 C 248.800781 158.804688 249 158.785156 249.199219 158.78125 Z M 177.277344 159.691406 C 180.78125 159.84375 183.101562 165.238281 178.632812 166.363281 C 174.492188 168.667969 170.300781 162.457031 174.898438 160.101562 C 175.101562 160.074219 175.511719 160.011719 175.71875 159.976562 C 176.25 159.753906 176.773438 159.667969 177.277344 159.691406 Z M 202.324219 161.074219 C 205.085938 160.976562 208.296875 164.71875 205.035156 166.332031 C 202.558594 169.128906 196.523438 165.246094 199.734375 162.316406 C 199.519531 161.554688 200.75 161.671875 201.191406 161.371094 C 201.546875 161.183594 201.929688 161.089844 202.324219 161.074219 Z M 127.863281 164.390625 C 131.375 164.273438 132.832031 169.988281 128.675781 170.554688 C 124.269531 171.890625 122.191406 164.945312 127.132812 164.496094 C 127.386719 164.433594 127.628906 164.398438 127.863281 164.390625 Z M 271.082031 175.539062 C 270.417969 176.257812 269.734375 176.96875 269.019531 177.640625 C 270.199219 177.46875 271.378906 177.292969 272.566406 177.097656 C 272.128906 176.523438 271.648438 175.980469 271.082031 175.539062 Z M 32.167969 176.367188 C 30.148438 177.484375 29.53125 179.941406 32.382812 179.09375 C 33.222656 179.082031 34.910156 179.058594 35.753906 179.050781 C 34.703125 177.972656 33.492188 177.078125 32.167969 176.367188 Z M 45.839844 184.359375 C 45.652344 184.871094 45.523438 185.398438 45.464844 185.941406 C 47.414062 185.773438 49.367188 185.648438 51.316406 185.507812 C 49.433594 185.417969 47.578125 185.078125 45.839844 184.359375 Z M 45.839844 184.359375 "/>
<path style={{stroke:"none",fillRule:"nonzero",fill:"rgb(47.058824%,26.666667%,12.941176%)",fillOpacity:"1"}} d="M 151.183594 19.621094 C 150.5625 19.609375 149.921875 19.765625 149.304688 20.144531 C 144.0625 21.074219 148.644531 28.894531 152.746094 25.90625 C 157.332031 24.71875 154.53125 19.695312 151.183594 19.621094 Z M 150.320312 20.472656 C 152.445312 20.574219 152.390625 25.09375 149.035156 23.398438 C 147.101562 23.195312 147.988281 20.621094 149.589844 20.59375 C 149.855469 20.5 150.097656 20.460938 150.320312 20.472656 Z M 195.507812 30.382812 C 194.359375 30.359375 193.175781 30.765625 192.371094 31.679688 C 190.71875 35.660156 196.523438 37.265625 198.84375 34.585938 C 199.773438 32.015625 197.699219 30.421875 195.507812 30.382812 Z M 194.023438 31.285156 C 200.320312 32.269531 190.042969 35.324219 194.023438 31.285156 Z M 99.171875 32.667969 C 96.050781 32.726562 92.875 35.402344 95.160156 38.5 C 96.613281 39.347656 98.21875 39.992188 99.933594 39.90625 C 100.792969 39.5 101.636719 39.066406 102.507812 38.667969 C 103.800781 36.976562 103.429688 35.078125 102.074219 33.558594 C 101.25 32.917969 100.214844 32.648438 99.171875 32.667969 Z M 173.78125 33.621094 C 172.535156 33.621094 171.285156 33.96875 170.425781 34.621094 C 164.613281 40.367188 179.210938 44.183594 178.1875 36.707031 C 177.9375 34.59375 175.863281 33.625 173.78125 33.621094 Z M 97.761719 33.835938 C 99.085938 33.882812 100.113281 35.023438 99.558594 36.441406 C 98.121094 38.703125 93.816406 35.929688 96.386719 34.1875 C 96.847656 33.925781 97.320312 33.820312 97.761719 33.835938 Z M 172.816406 34.203125 C 174.53125 34.144531 175.773438 36.46875 174.113281 37.507812 C 171.890625 39.175781 169.542969 35.949219 171.585938 34.671875 C 172 34.359375 172.421875 34.21875 172.816406 34.203125 Z M 137.328125 35.535156 C 136.464844 35.5625 135.546875 35.894531 134.667969 36.65625 C 141.175781 35.546875 135.886719 43.410156 133.757812 37.488281 C 132.105469 40.390625 135.632812 43.28125 138.503906 42.507812 C 143.824219 41.039062 141.070312 35.417969 137.328125 35.535156 Z M 111.640625 47.402344 C 111.039062 47.402344 110.394531 47.566406 109.746094 47.945312 C 104.5 48.929688 109.117188 56.640625 113.207031 53.734375 C 117 52.179688 114.898438 47.402344 111.640625 47.402344 Z M 110.851562 48.171875 C 113.0625 48.015625 112.773438 52.894531 109.628906 51.148438 C 107.792969 50.511719 108.289062 48.558594 110.085938 48.394531 C 110.367188 48.257812 110.625 48.1875 110.851562 48.171875 Z M 66.109375 52.238281 C 65.699219 52.246094 65.285156 52.335938 64.867188 52.542969 C 70.039062 54.1875 62.867188 57.941406 64.195312 52.949219 C 63.335938 53.550781 63.101562 54.582031 62.828125 55.523438 C 64.226562 59.625 71.339844 58.011719 69.582031 53.5625 C 68.515625 52.953125 67.335938 52.21875 66.109375 52.238281 Z M 227.046875 66.71875 C 231.773438 68.738281 225.472656 72.449219 225.117188 67.6875 C 220.835938 72 230.167969 75.101562 231.332031 70.492188 C 232.171875 67.878906 229.09375 66.804688 227.046875 66.71875 Z M 68.15625 67.972656 C 67.792969 67.976562 67.421875 68.019531 67.050781 68.109375 C 61.484375 70.386719 66.601562 76.925781 71.214844 74.140625 C 74.5 71.519531 71.667969 67.921875 68.15625 67.972656 Z M 67.652344 68.703125 C 68.980469 68.597656 70.691406 70.164062 69.246094 71.15625 C 67.660156 73.082031 64.214844 69.898438 67.117188 68.859375 C 67.28125 68.769531 67.460938 68.71875 67.652344 68.703125 Z M 167.378906 68.828125 C 167.15625 68.835938 166.929688 68.855469 166.710938 68.898438 C 164.953125 69.246094 162.757812 70.746094 163.742188 72.886719 C 164.578125 76.867188 173.113281 75.59375 171.308594 71.023438 C 170.5625 69.625 168.945312 68.792969 167.378906 68.828125 Z M 166.285156 69.679688 C 167.613281 69.570312 169.324219 71.136719 167.878906 72.132812 C 166.292969 74.058594 162.84375 70.875 165.75 69.835938 C 165.914062 69.746094 166.09375 69.695312 166.285156 69.679688 Z M 133.078125 72.191406 C 131.0625 72.148438 128.953125 73.273438 128.652344 75.515625 C 129.257812 76.554688 130.011719 77.515625 131.066406 78.140625 C 132.246094 78.207031 133.429688 78.222656 134.617188 78.1875 C 135.449219 77.472656 136.210938 76.683594 136.964844 75.890625 C 137.023438 73.453125 135.09375 72.238281 133.078125 72.191406 Z M 131.136719 73.230469 C 139.089844 73.898438 126.726562 77.28125 131.136719 73.230469 Z M 264.8125 80.777344 C 263.339844 80.722656 261.746094 81.15625 260.625 81.886719 C 256.835938 87.664062 268.890625 90.523438 268.636719 83.871094 C 268.40625 81.746094 266.707031 80.855469 264.8125 80.777344 Z M 263.585938 81.347656 C 265.207031 81.308594 266.65625 83.15625 264.921875 84.304688 C 262.378906 85.972656 260.382812 82.542969 262.890625 81.484375 C 263.121094 81.394531 263.355469 81.351562 263.585938 81.347656 Z M 31.0625 81.75 C 28.945312 81.832031 26.941406 82.964844 26.652344 85.261719 C 28.664062 92.175781 40.007812 85.648438 32.527344 81.863281 C 32.046875 81.769531 31.550781 81.730469 31.0625 81.75 Z M 30.214844 82.621094 C 31.710938 82.644531 32.398438 84.789062 30.875 85.542969 C 29.109375 87.007812 26.300781 83.863281 29.070312 82.988281 C 29.484375 82.722656 29.871094 82.617188 30.214844 82.621094 Z M 48.820312 92.75 C 48.550781 92.742188 48.28125 92.761719 48.019531 92.816406 C 41 93.957031 47.175781 102.730469 51.664062 97.957031 C 54.214844 95.722656 51.4375 92.84375 48.820312 92.75 Z M 47.050781 93.703125 C 54.765625 93.65625 43.984375 98.550781 47.050781 93.703125 Z M 157.742188 94.117188 C 155.691406 94.109375 153.65625 95.40625 154.34375 97.789062 C 155.652344 99.945312 158.816406 99.949219 160.671875 98.5 C 160.871094 97.867188 161.066406 97.238281 161.269531 96.605469 C 160.933594 94.917969 159.332031 94.125 157.742188 94.117188 Z M 156.003906 95.214844 C 162.210938 95.691406 152.1875 99.390625 156.003906 95.214844 Z M 229.847656 97.207031 C 226.804688 97.257812 223.253906 99.601562 227.683594 102.507812 C 229.128906 102.492188 230.613281 102.492188 232.019531 102.066406 C 234.269531 98.515625 232.210938 97.167969 229.847656 97.207031 Z M 228.183594 97.652344 C 234.003906 98.738281 223.742188 101.394531 228.183594 97.652344 Z M 181.683594 98.347656 C 185.339844 100.445312 180.386719 103.363281 180.054688 99.464844 C 179.675781 99.839844 179.316406 100.230469 178.972656 100.628906 C 178.65625 104.21875 184.632812 105.054688 185.496094 101.816406 C 186 99.457031 183.617188 98.480469 181.683594 98.347656 Z M 71.414062 110.722656 C 70.121094 110.75 68.839844 111.222656 67.90625 112.179688 C 64.382812 118.371094 75.769531 119.773438 76.363281 114.074219 C 75.746094 111.863281 73.570312 110.675781 71.414062 110.722656 Z M 15.792969 110.800781 C 13.632812 110.753906 11.578125 111.957031 11.703125 114.523438 C 12.554688 116.160156 14.183594 117.035156 16.023438 116.871094 C 16.890625 116.65625 17.765625 116.425781 18.636719 116.203125 C 19.578125 114.746094 19.644531 113.050781 18.617188 111.628906 C 17.78125 111.101562 16.777344 110.824219 15.792969 110.800781 Z M 70.730469 111.363281 C 72.277344 111.261719 73.515625 113.007812 72.410156 114.316406 C 70.496094 116.328125 66.347656 112.902344 69.636719 111.757812 C 70 111.511719 70.375 111.386719 70.730469 111.363281 Z M 13.847656 111.753906 C 21.5625 111.707031 10.785156 116.601562 13.847656 111.753906 Z M 143.363281 115.523438 C 143.074219 115.53125 142.785156 115.5625 142.503906 115.609375 C 148.339844 117.710938 139.234375 121.066406 141.675781 115.734375 C 141.117188 116.34375 140.574219 116.972656 140.101562 117.65625 C 139.753906 122.046875 146.554688 122.527344 147.65625 118.566406 C 147.398438 116.359375 145.382812 115.460938 143.363281 115.523438 Z M 106.191406 116.355469 C 103.730469 116.285156 101.320312 117.636719 102.320312 120.992188 C 103.695312 123.179688 106.546875 123.308594 108.777344 122.460938 C 112.597656 118.894531 109.355469 116.449219 106.191406 116.355469 Z M 249.742188 116.503906 C 247.902344 116.546875 246.132812 117.769531 246.625 119.929688 C 248.03125 122.503906 253.3125 122.050781 253.128906 118.675781 C 252.644531 117.15625 251.171875 116.472656 249.742188 116.503906 Z M 105.300781 116.992188 C 106.808594 116.855469 108.457031 118.867188 106.527344 119.710938 C 104.246094 122.007812 102.050781 117.566406 104.675781 117.191406 C 104.875 117.074219 105.085938 117.011719 105.300781 116.992188 Z M 248.695312 117.152344 C 253.949219 118.625 244.921875 120.992188 248.695312 117.152344 Z M 283.441406 118.289062 C 282.355469 118.402344 284.6875 120.867188 283.0625 121.347656 C 281.484375 121.980469 280.496094 120.390625 279.546875 119.445312 C 279.496094 119.738281 279.398438 120.320312 279.34375 120.613281 C 278.882812 122.949219 281.179688 123.898438 283.113281 123.972656 C 286.78125 124.507812 288.015625 118.914062 284.136719 118.398438 C 283.820312 118.304688 283.59375 118.273438 283.441406 118.289062 Z M 192.632812 119.496094 C 191.867188 119.460938 191.085938 119.609375 190.421875 119.953125 C 195.871094 120.542969 190.90625 124.230469 189.375 120.914062 C 189.179688 121.398438 189.007812 121.890625 188.867188 122.390625 C 190.375 125.449219 194.5625 125.523438 196.0625 122.402344 C 195.929688 120.558594 194.320312 119.574219 192.632812 119.496094 Z M 28.660156 124.667969 C 28.375 124.675781 28.085938 124.726562 27.800781 124.824219 C 33.214844 126.839844 24.777344 129.648438 26.984375 125.003906 C 23.066406 127.214844 27.277344 132.195312 30.722656 129.824219 C 33.941406 128.34375 31.421875 124.585938 28.660156 124.667969 Z M 261.175781 126.011719 C 260.660156 126.03125 260.128906 126.183594 259.613281 126.503906 C 254.773438 127.691406 259.675781 133.992188 263.148438 131.300781 C 266.242188 129.636719 263.949219 125.902344 261.175781 126.011719 Z M 6.457031 126.796875 C 12.433594 129.335938 3.570312 133.132812 4.304688 127.523438 C 0.597656 130.484375 4.871094 134.933594 8.660156 133.605469 C 12.695312 132.476562 12.007812 127.410156 8.023438 126.855469 C 7.5 126.824219 6.980469 126.804688 6.457031 126.796875 Z M 259.929688 126.941406 C 265.640625 128.121094 255.765625 130.734375 259.929688 126.941406 Z M 159.164062 129.367188 C 158.484375 129.402344 157.8125 129.625 157.214844 130.0625 C 163.132812 129.859375 157.511719 135.984375 156.175781 130.648438 C 155.988281 131.417969 155.871094 132.203125 155.777344 132.992188 C 156.59375 136.421875 162.027344 136.089844 163.296875 133.023438 C 163.234375 130.796875 161.191406 129.257812 159.164062 129.367188 Z M 230.25 132.367188 C 227.277344 132.398438 224.296875 134.347656 226.9375 138.128906 C 228.984375 139.105469 231.527344 139.339844 233.511719 138.09375 C 236.1875 134.214844 233.222656 132.332031 230.25 132.367188 Z M 228.867188 133.046875 C 230.390625 132.980469 231.976562 135.152344 230.226562 135.984375 C 227.726562 137.6875 225.71875 134.234375 228.226562 133.222656 C 228.433594 133.113281 228.648438 133.054688 228.867188 133.046875 Z M 277.578125 134.738281 C 276 134.777344 274.503906 135.398438 273.363281 136.652344 C 271.660156 144.46875 286.246094 140.75 279.757812 135.039062 C 279.03125 134.820312 278.296875 134.71875 277.578125 134.738281 Z M 70.308594 135.636719 C 69.75 135.644531 69.195312 135.820312 68.71875 136.210938 C 73.746094 136.101562 69.070312 141.125 68.269531 136.660156 C 65.050781 138.4375 70.113281 142.898438 72.589844 140.359375 C 75.28125 138.652344 72.730469 135.597656 70.308594 135.636719 Z M 275.585938 135.710938 C 283.261719 135.882812 272.679688 141.191406 275.585938 135.710938 Z M 58.601562 155.351562 C 58.804688 156.929688 56.636719 160.003906 55.226562 155.96875 C 50.050781 163.054688 66.636719 160.289062 58.601562 155.351562 Z M 23.121094 158.417969 C 20.910156 158.433594 19.015625 159.785156 20.339844 163.371094 C 21.984375 164.363281 23.855469 164.394531 25.71875 164.09375 C 30.242188 161.222656 26.347656 158.394531 23.121094 158.417969 Z M 249.199219 158.800781 C 249 158.804688 248.800781 158.824219 248.601562 158.863281 C 254.28125 161.734375 244.84375 164.261719 247.953125 159.296875 C 243.246094 161.054688 248.175781 167.363281 251.917969 164.460938 C 255.304688 162.476562 252.207031 158.75 249.199219 158.800781 Z M 22.148438 159.066406 C 29.863281 159.015625 19.085938 163.914062 22.148438 159.066406 Z M 177.269531 159.707031 C 176.769531 159.6875 176.246094 159.773438 175.710938 159.992188 C 182.367188 162.382812 172.164062 166.335938 174.890625 160.121094 C 170.296875 162.476562 174.488281 168.683594 178.628906 166.382812 C 183.097656 165.253906 180.777344 159.859375 177.269531 159.707031 Z M 202.320312 161.09375 C 201.925781 161.105469 201.542969 161.199219 201.1875 161.386719 C 206.507812 162.738281 200.371094 167.394531 199.730469 162.332031 C 196.519531 165.265625 202.554688 169.148438 205.027344 166.347656 C 208.292969 164.734375 205.078125 160.992188 202.320312 161.09375 Z M 127.859375 164.410156 C 127.625 164.417969 127.378906 164.449219 127.128906 164.515625 C 122.1875 164.960938 124.261719 171.90625 128.671875 170.570312 C 132.828125 170.003906 131.371094 164.289062 127.859375 164.410156 Z M 126.976562 165.269531 C 128.046875 165.304688 128.8125 166.414062 128.363281 167.566406 C 126.925781 169.316406 123.226562 166.566406 126.195312 165.429688 C 126.464844 165.3125 126.726562 165.261719 126.976562 165.269531 Z M 67.835938 170.132812 C 66.378906 170.144531 64.882812 170.863281 64.203125 172.300781 C 64.929688 175.855469 69.535156 176.433594 71.484375 173.535156 C 71.523438 171.269531 69.707031 170.117188 67.835938 170.132812 Z M 67.3125 170.644531 C 68.300781 170.617188 69.257812 171.417969 68.761719 172.519531 C 67.621094 174.488281 63.640625 171.730469 66.640625 170.800781 C 66.851562 170.699219 67.082031 170.648438 67.3125 170.644531 Z M 223.601562 175.269531 C 223.078125 175.253906 222.539062 175.375 222.011719 175.671875 C 218.0625 177.273438 221.457031 182.859375 225.085938 180.53125 C 228.683594 179.410156 226.417969 175.359375 223.601562 175.269531 Z M 222.371094 176.179688 C 228.523438 177.273438 218.78125 180.152344 222.371094 176.179688 Z M 91.871094 176.570312 C 88.71875 176.980469 86.386719 181.222656 89.703125 183.152344 C 94.15625 186.734375 100.378906 180.210938 95.164062 176.972656 C 94.074219 176.789062 92.96875 176.65625 91.871094 176.570312 Z M 92.113281 177.289062 C 93.960938 177.304688 95.328125 180.195312 92.925781 180.695312 C 90.800781 182.125 88.367188 178.628906 91.054688 177.609375 C 91.410156 177.378906 91.769531 177.285156 92.113281 177.285156 Z M 154.777344 179.757812 C 154.144531 179.757812 153.511719 179.816406 152.882812 179.929688 C 159.035156 180.558594 153.324219 185.308594 151.5625 180.832031 C 149.324219 187.078125 161.628906 185.964844 157.886719 180.292969 C 156.886719 179.933594 155.835938 179.761719 154.777344 179.757812 Z M 172.949219 185.582031 C 172.574219 185.597656 172.214844 185.660156 171.890625 185.78125 C 177.535156 187.070312 171.007812 191.859375 170.484375 186.734375 C 166.617188 190.664062 174.753906 194.449219 176.976562 190.386719 C 179.015625 187.800781 175.570312 185.480469 172.949219 185.582031 Z M 172.949219 185.582031 "/>
<path style={{stroke:"none",fillRule:"nonzero",fill:"rgb(100%,90.196078%,50.196078%)",fillOpacity:"1"}} d="M 136.285156 20.546875 C 131.757812 24.394531 129.425781 32.476562 133.667969 37.132812 C 133.917969 37.011719 134.417969 36.773438 134.667969 36.65625 C 139.371094 32.601562 145.054688 40.703125 138.507812 42.507812 C 147.464844 49.320312 159.335938 51.53125 170.386719 50.882812 C 178.878906 52.679688 190.195312 55.625 197.007812 48.90625 C 196.457031 40.238281 184.464844 39.878906 178.195312 36.710938 C 179.214844 44.183594 164.621094 40.367188 170.429688 34.621094 C 158.859375 30.472656 146.699219 27.320312 136.285156 20.546875 Z M 107.261719 37.28125 C 105.863281 37.195312 103.945312 38.679688 102.511719 38.667969 C 101.640625 39.066406 100.796875 39.5 99.9375 39.90625 C 96.585938 43.492188 93.023438 51.789062 99.28125 55.988281 C 111.4375 63.707031 127.015625 60.882812 140.703125 61.503906 C 128.449219 57.683594 114.375 51.683594 108.746094 38.652344 C 108.421875 37.679688 107.894531 37.320312 107.261719 37.28125 Z M 111.644531 47.402344 C 114.898438 47.402344 117.003906 52.179688 113.207031 53.734375 C 109.117188 56.640625 104.5 48.929688 109.746094 47.945312 C 110.398438 47.566406 111.039062 47.402344 111.644531 47.402344 Z M 72.609375 62.589844 C 69.722656 62.539062 66.503906 65.195312 67.050781 68.105469 C 71.015625 67.164062 74.84375 71.246094 71.214844 74.140625 C 76.144531 75.929688 81.414062 76.835938 86.542969 75.210938 C 101.328125 76.757812 116.148438 78.65625 131.070312 78.140625 C 130.015625 77.515625 129.257812 76.554688 128.652344 75.515625 C 109.9375 74.8125 91.191406 70.769531 74.152344 62.910156 C 73.664062 62.699219 73.144531 62.597656 72.609375 62.589844 Z M 227.574219 63.980469 C 226.0625 63.933594 224.558594 64.476562 223.632812 65.777344 C 206.601562 82.050781 184.492188 92.792969 161.265625 96.597656 C 161.066406 97.230469 160.871094 97.859375 160.671875 98.496094 C 166.753906 99.332031 172.886719 99.757812 178.972656 100.617188 C 179.3125 100.214844 179.675781 99.828125 180.050781 99.453125 C 180.5 98.964844 181.007812 98.488281 181.679688 98.335938 C 183.613281 98.464844 186 99.441406 185.496094 101.800781 C 198.601562 101.140625 213.890625 103.269531 227.683594 102.5 C 219.808594 97.335938 237.160156 93.945312 232.019531 102.058594 C 243.3125 101.578125 254.597656 100.085938 265.597656 97.4375 C 265.75 95.125 263.527344 93.558594 261.714844 92.632812 C 252.414062 88.023438 241.535156 90.34375 231.941406 86.875 C 225.40625 82.855469 232.234375 75.136719 232.378906 69.613281 C 233.390625 66.328125 230.464844 64.074219 227.574219 63.980469 Z M 227.042969 66.714844 C 229.089844 66.804688 232.167969 67.878906 231.328125 70.492188 C 230.164062 75.101562 220.832031 72 225.113281 67.6875 C 225.128906 66.847656 226.441406 67.003906 227.042969 66.714844 Z M 136.964844 75.890625 C 136.207031 76.679688 135.445312 77.46875 134.617188 78.1875 C 140.75 78.03125 146.816406 77.167969 152.910156 76.539062 C 148.449219 75.152344 142.023438 76.632812 136.964844 75.890625 Z M 45.839844 87.789062 C 39.828125 87.753906 32.179688 92.449219 36.082031 98.894531 C 43.1875 110.003906 58.132812 105.589844 67.902344 112.164062 C 70.386719 109.609375 75.375 110.519531 76.359375 114.0625 C 84.988281 116.445312 93.574219 119.011719 102.320312 120.976562 C 100.03125 113.304688 115.566406 116.109375 108.777344 122.445312 C 123.886719 126.316406 139.285156 129.117188 154.660156 131.761719 C 155.527344 131.65625 154.871094 133.363281 155.773438 132.972656 C 155.867188 132.183594 155.984375 131.398438 156.167969 130.628906 C 156.429688 130.480469 156.949219 130.1875 157.207031 130.042969 C 159.601562 128.289062 163.210938 130.035156 163.292969 133.003906 C 184.375 135.996094 205.65625 137.539062 226.933594 138.109375 C 221.652344 130.546875 238.859375 130.316406 233.507812 138.074219 C 246.8125 138.359375 260.128906 135.976562 273.359375 136.632812 C 275.015625 134.808594 277.433594 134.324219 279.753906 135.015625 C 285.65625 135.769531 286.9375 127.175781 283.105469 123.949219 C 281.171875 123.878906 278.875 122.925781 279.335938 120.589844 C 270.886719 118.605469 261.972656 116.105469 253.125 118.660156 C 253.3125 122.035156 248.027344 122.488281 246.621094 119.914062 C 230.03125 122.984375 212.890625 122.273438 196.054688 122.382812 C 194.558594 125.503906 190.367188 125.429688 188.859375 122.371094 C 175.136719 121.375 161.304688 120.550781 147.652344 118.554688 C 146.554688 122.511719 139.753906 122.03125 140.097656 117.640625 C 108.609375 112.121094 77.238281 103.546875 48.925781 88.316406 C 48.011719 87.964844 46.953125 87.796875 45.839844 87.789062 Z M 48.816406 92.742188 C 51.433594 92.835938 54.210938 95.714844 51.65625 97.949219 C 47.171875 102.722656 40.996094 93.949219 48.015625 92.808594 C 48.277344 92.753906 48.546875 92.734375 48.816406 92.742188 Z M 25.015625 114.78125 C 22.863281 114.761719 20.746094 115.769531 18.628906 116.183594 C 17.761719 116.410156 16.886719 116.636719 16.019531 116.851562 C 14.925781 119.753906 9.105469 122.558594 8.019531 126.832031 C 12.003906 127.386719 12.691406 132.453125 8.65625 133.582031 C 12.492188 136.890625 16.378906 140.648438 21.847656 141.128906 C 55.460938 142.121094 89.09375 144.933594 122.722656 144.625 C 89.789062 138.730469 58.429688 126.785156 27.183594 115.203125 C 26.457031 114.910156 25.734375 114.789062 25.015625 114.78125 Z M 28.65625 124.644531 C 31.417969 124.5625 33.9375 128.320312 30.71875 129.800781 C 27.273438 132.171875 23.0625 127.191406 26.980469 124.984375 C 27.179688 124.9375 27.589844 124.851562 27.796875 124.800781 C 28.082031 124.703125 28.367188 124.65625 28.65625 124.648438 Z M 261.167969 125.988281 C 263.945312 125.878906 266.238281 129.613281 263.144531 131.277344 C 259.671875 133.972656 254.769531 127.667969 259.609375 126.480469 C 260.125 126.160156 260.65625 126.007812 261.167969 125.988281 Z M 70.304688 135.613281 C 72.730469 135.574219 75.28125 138.632812 72.585938 140.335938 C 70.109375 142.875 65.046875 138.414062 68.265625 136.636719 L 68.714844 136.191406 C 69.195312 135.796875 69.746094 135.625 70.304688 135.613281 Z M 70.304688 135.613281 "/>
<path style={{stroke:"none",fillRule:"nonzero",fill:"rgb(82.745098%,55.294118%,37.254902%)",fillOpacity:"1"}} d="M 150.316406 20.472656 C 150.097656 20.460938 149.855469 20.5 149.589844 20.59375 C 147.988281 20.621094 147.097656 23.195312 149.03125 23.398438 C 152.390625 25.09375 152.445312 20.574219 150.316406 20.472656 Z M 194.023438 31.285156 C 190.042969 35.324219 200.324219 32.269531 194.023438 31.285156 Z M 97.765625 33.835938 C 97.324219 33.820312 96.851562 33.929688 96.390625 34.1875 C 93.820312 35.929688 98.125 38.703125 99.5625 36.441406 C 100.117188 35.023438 99.089844 33.882812 97.765625 33.835938 Z M 172.816406 34.203125 C 172.421875 34.21875 172 34.359375 171.585938 34.671875 C 169.542969 35.949219 171.894531 39.175781 174.113281 37.507812 C 175.773438 36.46875 174.53125 34.144531 172.816406 34.203125 Z M 135.753906 36.546875 C 135.433594 36.550781 135.074219 36.585938 134.667969 36.65625 C 134.417969 36.773438 133.914062 37.011719 133.664062 37.132812 L 133.757812 37.488281 C 135.753906 43.039062 140.527344 36.476562 135.753906 36.546875 Z M 110.855469 48.171875 C 110.625 48.1875 110.371094 48.257812 110.089844 48.394531 C 108.292969 48.558594 107.796875 50.511719 109.632812 51.148438 C 112.777344 52.894531 113.0625 48.015625 110.855469 48.171875 Z M 64.871094 52.542969 C 64.703125 52.648438 64.363281 52.847656 64.195312 52.949219 C 62.867188 57.941406 70.042969 54.1875 64.871094 52.542969 Z M 227.046875 66.71875 C 226.449219 67.003906 225.132812 66.847656 225.121094 67.6875 C 225.476562 72.449219 231.773438 68.734375 227.046875 66.71875 Z M 67.652344 68.703125 C 67.464844 68.71875 67.28125 68.769531 67.117188 68.859375 C 64.21875 69.898438 67.660156 73.082031 69.246094 71.15625 C 70.691406 70.160156 68.980469 68.59375 67.652344 68.703125 Z M 166.285156 69.679688 C 166.097656 69.695312 165.914062 69.742188 165.75 69.832031 C 162.847656 70.871094 166.292969 74.054688 167.878906 72.128906 C 169.324219 71.136719 167.613281 69.570312 166.285156 69.679688 Z M 131.140625 73.226562 C 126.730469 77.28125 139.09375 73.898438 131.140625 73.226562 Z M 263.585938 81.34375 C 263.355469 81.351562 263.121094 81.394531 262.890625 81.484375 C 260.378906 82.542969 262.378906 85.972656 264.921875 84.304688 C 266.65625 83.15625 265.207031 81.308594 263.585938 81.34375 Z M 30.210938 82.613281 C 29.867188 82.609375 29.476562 82.71875 29.066406 82.984375 C 26.296875 83.855469 29.105469 87 30.871094 85.539062 C 32.394531 84.78125 31.707031 82.636719 30.210938 82.613281 Z M 47.046875 93.695312 C 43.980469 98.542969 54.761719 93.648438 47.046875 93.695312 Z M 156 95.207031 C 152.179688 99.382812 162.203125 95.6875 156 95.207031 Z M 228.179688 97.640625 C 223.742188 101.386719 234 98.730469 228.179688 97.640625 Z M 181.683594 98.339844 C 181.007812 98.496094 180.5 98.96875 180.050781 99.457031 C 180.382812 103.355469 185.339844 100.4375 181.683594 98.339844 Z M 70.730469 111.355469 C 70.371094 111.378906 70 111.503906 69.632812 111.75 C 66.347656 112.894531 70.492188 116.320312 72.40625 114.308594 C 73.515625 113 72.277344 111.253906 70.730469 111.355469 Z M 13.84375 111.746094 C 10.785156 116.59375 21.558594 111.699219 13.84375 111.746094 Z M 142.503906 115.601562 C 142.296875 115.628906 141.882812 115.695312 141.675781 115.726562 C 139.234375 121.058594 148.335938 117.703125 142.503906 115.601562 Z M 105.300781 116.980469 C 105.085938 117 104.871094 117.0625 104.675781 117.179688 C 102.046875 117.554688 104.242188 121.992188 106.523438 119.695312 C 108.457031 118.855469 106.804688 116.84375 105.300781 116.980469 Z M 248.695312 117.140625 C 244.917969 120.980469 253.949219 118.613281 248.695312 117.140625 Z M 282.851562 117.90625 C 281.664062 117.902344 280.125 118.582031 279.542969 119.433594 C 280.496094 120.378906 281.480469 121.96875 283.058594 121.335938 C 284.917969 120.785156 281.605469 117.644531 284.132812 118.382812 C 283.859375 118.050781 283.390625 117.90625 282.851562 117.90625 Z M 190.417969 119.941406 C 189.773438 119.953125 189.429688 120.277344 189.371094 120.902344 C 190.902344 124.21875 195.867188 120.53125 190.417969 119.941406 Z M 27.796875 124.8125 C 27.59375 124.859375 27.183594 124.949219 26.980469 124.992188 C 24.773438 129.636719 33.210938 126.828125 27.796875 124.8125 Z M 6.453125 126.78125 C 5.6875 126.820312 4.949219 127.113281 4.300781 127.507812 C 3.570312 133.117188 12.429688 129.324219 6.453125 126.78125 Z M 259.925781 126.929688 C 255.761719 130.722656 265.640625 128.109375 259.925781 126.929688 Z M 157.734375 130.046875 C 157.570312 130.042969 157.398438 130.042969 157.210938 130.050781 C 156.953125 130.195312 156.433594 130.488281 156.171875 130.636719 C 157.46875 135.804688 162.785156 130.214844 157.734375 130.046875 Z M 228.867188 133.035156 C 228.648438 133.042969 228.433594 133.097656 228.226562 133.210938 C 225.71875 134.21875 227.726562 137.671875 230.226562 135.972656 C 231.976562 135.140625 230.390625 132.964844 228.867188 133.035156 Z M 275.585938 135.695312 C 272.679688 141.179688 283.261719 135.867188 275.585938 135.695312 Z M 68.714844 136.199219 L 68.265625 136.648438 C 69.066406 141.109375 73.746094 136.085938 68.714844 136.199219 Z M 57.65625 154.988281 C 56.664062 154.96875 55.277344 155.410156 55.226562 155.957031 C 56.636719 159.988281 58.804688 156.917969 58.597656 155.335938 C 58.472656 155.101562 58.105469 154.996094 57.65625 154.988281 Z M 248.597656 158.851562 C 248.4375 158.960938 248.109375 159.175781 247.949219 159.285156 C 244.835938 164.25 254.277344 161.722656 248.597656 158.851562 Z M 22.148438 159.054688 C 19.085938 163.902344 29.863281 159.007812 22.148438 159.054688 Z M 175.710938 159.980469 C 175.507812 160.015625 175.097656 160.078125 174.890625 160.109375 C 172.160156 166.328125 182.367188 162.371094 175.710938 159.980469 Z M 201.183594 161.375 C 200.746094 161.679688 199.515625 161.5625 199.730469 162.324219 C 200.371094 167.386719 206.507812 162.726562 201.183594 161.375 Z M 126.976562 165.257812 C 126.730469 165.25 126.464844 165.300781 126.195312 165.417969 C 123.226562 166.554688 126.925781 169.308594 128.367188 167.554688 C 128.8125 166.402344 128.046875 165.292969 126.976562 165.257812 Z M 67.3125 170.632812 C 67.085938 170.636719 66.855469 170.6875 66.640625 170.789062 C 63.640625 171.71875 67.621094 174.476562 68.765625 172.511719 C 69.261719 171.410156 68.300781 170.605469 67.3125 170.632812 Z M 222.371094 176.167969 C 218.78125 180.144531 228.523438 177.261719 222.371094 176.167969 Z M 92.109375 177.28125 C 91.765625 177.277344 91.40625 177.375 91.050781 177.601562 C 88.359375 178.621094 90.796875 182.117188 92.921875 180.6875 C 95.324219 180.191406 93.957031 177.296875 92.109375 177.28125 Z M 152.878906 179.925781 C 152.425781 180.207031 151.984375 180.511719 151.554688 180.828125 C 153.320312 185.304688 159.03125 180.554688 152.878906 179.925781 Z M 171.886719 185.777344 C 171.476562 186.074219 170.121094 185.976562 170.480469 186.726562 C 171.003906 191.855469 177.53125 187.066406 171.886719 185.777344 Z M 171.886719 185.777344 "/>
<path style={{stroke:"none",fillRule:"nonzero",fill:"rgb(100%,86.666667%,33.333333%)",fillOpacity:"1"}} d="M 157.886719 180.28125 C 200.171875 180.539062 242.054688 172.269531 282.816406 161.589844 C 281.851562 165.246094 279.484375 168.332031 277.238281 171.308594 C 271.320312 169.972656 264.121094 170.898438 271.074219 175.535156 C 270.410156 176.257812 269.726562 176.964844 269.015625 177.636719 C 264.308594 177.683594 259.609375 177.429688 254.90625 177.421875 C 253.570312 178.804688 259.691406 183.59375 255.738281 184.464844 C 248.925781 184.269531 237.121094 180.246094 240.152344 190.214844 C 234.292969 190.191406 228.519531 189.015625 222.730469 188.273438 C 221.34375 190.441406 221.808594 193.511719 219.78125 195.316406 C 212.621094 193.992188 201.847656 188.144531 199.308594 198.628906 C 193.941406 198.613281 189.027344 195.449219 183.707031 194.808594 C 180.785156 196.722656 178.535156 199.570312 175.386719 201.160156 C 171.324219 199.125 166.992188 197.507812 162.660156 196.160156 C 159.171875 197.765625 155.878906 199.824219 152.71875 202.011719 C 148.792969 200.515625 145.304688 198.132812 141.558594 196.28125 C 137.148438 197.847656 132.910156 199.929688 128.507812 201.5625 C 126.046875 199.222656 123.421875 196.921875 120.460938 195.25 C 115.492188 196.144531 110.683594 197.960938 105.910156 199.613281 C 103.867188 197.378906 102.046875 194.953125 99.964844 192.761719 C 94.488281 193.738281 89.132812 195.351562 83.613281 196.164062 C 83.597656 184.917969 72.203125 190.992188 65.527344 191.292969 C 62.050781 191.472656 64.097656 186.792969 63.476562 184.46875 C 59.410156 184.578125 55.375 185.273438 51.308594 185.503906 C 49.429688 185.417969 47.574219 185.074219 45.835938 184.359375 C 52.90625 176.074219 40.898438 179.03125 35.746094 179.046875 C 34.699219 177.96875 33.488281 177.078125 32.164062 176.363281 C 38.394531 171.632812 31.691406 171.484375 26.996094 172.179688 C 24.945312 170.253906 17.765625 164.855469 20.335938 163.351562 C 21.984375 164.34375 23.851562 164.378906 25.71875 164.074219 C 38.042969 168.078125 51.390625 169.765625 64.203125 172.28125 C 64.933594 175.839844 69.535156 176.414062 71.484375 173.515625 C 78.246094 174.722656 85.03125 175.878906 91.871094 176.554688 C 88.714844 176.964844 86.386719 181.207031 89.703125 183.140625 C 94.15625 186.71875 100.375 180.199219 95.160156 176.960938 C 113.828125 179.675781 132.714844 180.496094 151.558594 180.816406 C 149.320312 187.066406 161.625 185.953125 157.886719 180.28125 M 222.015625 175.652344 C 218.066406 177.253906 221.460938 182.839844 225.085938 180.511719 C 229.355469 179.183594 225.382812 173.742188 222.015625 175.652344 M 170.484375 186.71875 C 166.617188 190.648438 174.75 194.433594 176.972656 190.371094 C 179.300781 187.417969 174.472656 184.808594 171.890625 185.769531 C 171.480469 186.066406 170.121094 185.96875 170.484375 186.71875 Z M 170.484375 186.71875 "/>
<path style={{stroke:"none",fillRule:"nonzero",fill:"rgb(86.666667%,52.54902%,72.941176%)",fillOpacity:"1"}} d="M 272.796875 170.75 C 268.601562 170.667969 265.859375 172.054688 271.074219 175.535156 C 271.640625 175.980469 272.121094 176.519531 272.558594 177.09375 C 268.597656 203.722656 261.351562 230.371094 256.394531 257.0625 C 260.765625 255.253906 264.519531 247.023438 267.746094 247.867188 C 272.304688 223.191406 277.03125 198.546875 281.46875 173.851562 C 282.199219 172.3125 281.875 171.425781 280.488281 171.191406 C 279.675781 171.21875 278.050781 171.277344 277.234375 171.308594 C 275.753906 170.972656 274.195312 170.78125 272.796875 170.753906 Z M 44.273438 178.527344 C 41.566406 178.472656 38 179.042969 35.746094 179.046875 C 34.902344 179.058594 33.21875 179.082031 32.378906 179.09375 C 31.648438 179.226562 30.925781 179.382812 30.222656 179.605469 C 37.78125 219.101562 46 258.488281 53.636719 297.960938 C 49.324219 297.507812 45.199219 296.015625 40.984375 295.070312 C 41.640625 300.308594 43.210938 305.429688 43.359375 310.722656 C 46.9375 314.75 52.613281 315.648438 57.554688 317.03125 C 56.679688 310.839844 54.527344 304.835938 54.257812 298.566406 C 59.070312 298.65625 63.660156 300.308594 68.433594 300.796875 C 61.113281 262.464844 52.070312 224.378906 45.457031 185.941406 C 45.515625 185.398438 45.644531 184.871094 45.835938 184.359375 C 49.8125 179.699219 47.753906 178.597656 44.273438 178.527344 Z M 244.90625 183.503906 C 241.117188 183.574219 238.539062 184.921875 240.148438 190.214844 C 234.746094 220.386719 227.238281 250.222656 221.078125 280.273438 C 226.839844 278.394531 231.691406 274.171875 237.253906 272.246094 C 234.398438 288.335938 230.160156 304.203125 226.214844 320.074219 C 232.25 319.222656 238.226562 317.996094 244.1875 316.734375 C 242.929688 316.683594 243.574219 315.289062 243.605469 314.503906 C 247.753906 295.84375 251.804688 277.160156 255.859375 258.484375 C 249.808594 262.691406 244.382812 267.863281 237.71875 271.125 C 244.523438 242.746094 250.902344 214.257812 257.191406 185.757812 C 257.746094 184.683594 256.410156 184.738281 255.738281 184.464844 C 252.542969 184.375 248.253906 183.441406 244.90625 183.503906 Z M 77.75 189.386719 C 73.953125 189.34375 69.074219 191.132812 65.527344 191.292969 C 64.984375 191.429688 64.453125 191.589844 63.929688 191.785156 C 70.726562 228.820312 78.394531 265.765625 84.847656 302.824219 C 79.453125 302.800781 74.144531 301.703125 68.820312 300.972656 C 68.9375 307.164062 73.148438 314.207031 71.179688 319.660156 C 77.097656 320.359375 83 321.207031 88.925781 321.84375 C 87.867188 315.570312 86.003906 309.363281 85.527344 303.03125 C 90.433594 303.128906 95.292969 304.109375 100.21875 303.996094 C 102.121094 310.085938 102.382812 316.605469 103.480469 322.882812 C 108.84375 323.335938 114.222656 323.609375 119.601562 323.824219 C 119.566406 317.367188 117.792969 311.003906 117.835938 304.582031 C 122.328125 302.5625 128.140625 304.117188 133.101562 303.511719 C 133.878906 310.429688 134.515625 317.496094 133.808594 324.441406 C 139.289062 324.410156 144.796875 323.996094 150.257812 324.566406 C 149.964844 316.972656 150.527344 309.296875 151.085938 301.714844 C 156.28125 300.394531 161.632812 299.515625 166.972656 299.050781 C 166.5 307.507812 165.625 315.957031 164.554688 324.367188 C 170.089844 324.386719 175.605469 324.003906 181.132812 323.824219 C 182.289062 314.066406 184.292969 304.410156 184.964844 294.597656 C 178.957031 295.601562 173.214844 297.832031 167.144531 298.546875 C 169.953125 266.089844 172.855469 233.640625 175.386719 201.160156 C 171.324219 199.125 166.992188 197.507812 162.660156 196.160156 C 159.171875 197.765625 155.878906 199.824219 152.71875 202.011719 C 151.910156 235.054688 151.40625 268.105469 150.929688 301.15625 C 145.375 302.878906 139.261719 303.03125 133.4375 303.289062 C 131.460938 269.40625 129.957031 235.480469 128.507812 201.566406 C 126.046875 199.222656 123.421875 196.921875 120.460938 195.25 C 115.492188 196.144531 110.683594 197.960938 105.910156 199.613281 C 110.117188 234.46875 113.730469 269.421875 117.609375 304.308594 C 112.152344 302.726562 99.164062 308.792969 99.648438 299.316406 C 94.535156 264.902344 88.253906 230.640625 83.613281 196.164062 C 83.605469 190.894531 81.097656 189.425781 77.75 189.386719 Z M 206.375 192.5 C 203.105469 192.582031 200.417969 194.042969 199.304688 198.628906 C 194.296875 230.320312 189.648438 262.117188 185.492188 293.9375 C 191.164062 292.914062 196.402344 290.234375 202.027344 289.160156 C 200.269531 300.453125 197.101562 311.546875 195.957031 322.917969 C 201.988281 322.695312 208.007812 322.210938 214.019531 321.648438 C 211.414062 321.675781 213.09375 318.089844 213.066406 316.699219 C 215.660156 304.800781 218.207031 292.894531 220.78125 280.992188 C 214.59375 283.644531 208.496094 286.566406 202.09375 288.652344 C 208.183594 257.582031 214.175781 226.480469 219.78125 195.316406 C 215.753906 194.570312 210.582031 192.394531 206.375 192.5 Z M 206.375 192.5 "/>
<path style={{stroke:"none",fillRule:"nonzero",fill:"rgb(91.372549%,68.627451%,81.960784%)",fillOpacity:"1"}} d="M 19.664062 171.679688 C 18.757812 171.65625 17.875 171.785156 18.171875 173.015625 C 25.816406 213.691406 33.484375 254.367188 40.984375 295.070312 C 45.199219 296.015625 49.324219 297.507812 53.636719 297.964844 C 46 258.488281 37.78125 219.101562 30.222656 179.605469 C 30.695312 179.457031 31.175781 179.34375 31.660156 179.242188 C 29.667969 179.472656 30.335938 177.375 32.164062 176.367188 C 38.394531 171.636719 31.6875 171.484375 26.996094 172.179688 C 24.839844 172.046875 22.691406 171.824219 20.535156 171.714844 C 20.269531 171.707031 19.964844 171.683594 19.664062 171.679688 Z M 31.660156 179.238281 C 31.871094 179.214844 32.105469 179.171875 32.378906 179.089844 C 32.136719 179.132812 31.898438 179.1875 31.660156 179.238281 Z M 272.558594 177.097656 C 271.371094 177.292969 270.191406 177.46875 269.015625 177.636719 C 264.308594 177.683594 259.609375 177.429688 254.90625 177.421875 C 253.570312 178.804688 259.691406 183.59375 255.738281 184.464844 C 256.410156 184.738281 257.75 184.6875 257.191406 185.757812 C 250.902344 214.257812 244.527344 242.746094 237.71875 271.125 C 244.386719 267.863281 249.808594 262.691406 255.859375 258.484375 C 256.035156 258.007812 256.214844 257.53125 256.398438 257.066406 C 261.351562 230.375 268.597656 203.726562 272.558594 177.097656 Z M 63.476562 184.46875 C 59.410156 184.578125 55.375 185.277344 51.308594 185.503906 C 49.359375 185.644531 47.40625 185.773438 45.460938 185.9375 C 52.070312 224.378906 61.113281 262.460938 68.433594 300.796875 L 68.820312 300.96875 C 74.144531 301.703125 79.453125 302.800781 84.847656 302.824219 C 78.394531 265.765625 70.726562 228.820312 63.929688 191.785156 C 64.453125 191.589844 64.984375 191.429688 65.527344 191.292969 C 62.050781 191.472656 64.097656 186.792969 63.476562 184.46875 Z M 222.730469 188.273438 C 221.34375 190.441406 221.808594 193.511719 219.78125 195.316406 C 214.175781 226.480469 208.183594 257.582031 202.09375 288.652344 C 208.496094 286.566406 214.59375 283.644531 220.78125 280.992188 C 220.855469 280.808594 221.007812 280.453125 221.078125 280.273438 C 227.242188 250.222656 234.746094 220.386719 240.152344 190.214844 C 234.292969 190.191406 228.519531 189.015625 222.730469 188.277344 Z M 99.964844 192.761719 C 94.488281 193.738281 89.132812 195.351562 83.613281 196.164062 C 88.253906 230.640625 94.535156 264.902344 99.648438 299.316406 C 99.164062 308.792969 112.152344 302.726562 117.609375 304.308594 C 113.730469 269.421875 110.117188 234.46875 105.910156 199.613281 C 103.867188 197.378906 102.046875 194.949219 99.964844 192.761719 Z M 183.707031 194.808594 C 180.785156 196.722656 178.535156 199.570312 175.386719 201.160156 C 172.859375 233.640625 169.953125 266.089844 167.144531 298.546875 C 173.214844 297.832031 178.957031 295.601562 184.964844 294.597656 C 185.097656 294.429688 185.363281 294.101562 185.496094 293.9375 C 189.648438 262.117188 194.296875 230.320312 199.308594 198.628906 C 193.941406 198.613281 189.027344 195.449219 183.707031 194.808594 Z M 141.558594 196.28125 C 137.148438 197.847656 132.910156 199.929688 128.507812 201.566406 C 129.957031 235.480469 131.460938 269.40625 133.4375 303.289062 C 139.261719 303.03125 145.375 302.878906 150.929688 301.15625 C 151.40625 268.105469 151.910156 235.054688 152.71875 202.011719 C 148.792969 200.515625 145.304688 198.132812 141.558594 196.28125 Z M 141.558594 196.28125 "/>
<path style={{stroke:"none",fillRule:"nonzero",fill:"rgb(84.705882%,45.098039%,68.627451%)",fillOpacity:"1"}} d="M 267.140625 247.8125 C 264.050781 248.027344 260.496094 255.371094 256.398438 257.066406 C 256.21875 257.535156 256.035156 258.007812 255.859375 258.484375 C 251.808594 277.164062 247.753906 295.847656 243.609375 314.507812 C 243.574219 315.292969 242.929688 316.6875 244.191406 316.734375 C 248.457031 315.457031 253.222656 314.332031 256.40625 310.984375 C 259.542969 289.847656 264.058594 268.921875 267.75 247.867188 C 267.546875 247.8125 267.34375 247.796875 267.136719 247.8125 Z M 237.257812 272.246094 C 231.695312 274.171875 226.839844 278.394531 221.078125 280.273438 C 221.007812 280.453125 220.855469 280.808594 220.78125 280.992188 C 218.207031 292.894531 215.660156 304.800781 213.066406 316.699219 C 213.09375 318.089844 211.414062 321.671875 214.019531 321.648438 C 218.09375 321.25 222.183594 320.84375 226.214844 320.074219 C 230.160156 304.203125 234.398438 288.335938 237.253906 272.246094 Z M 202.027344 289.160156 C 196.402344 290.230469 191.164062 292.914062 185.492188 293.9375 C 185.363281 294.101562 185.097656 294.429688 184.964844 294.597656 C 184.292969 304.410156 182.289062 314.066406 181.132812 323.824219 C 186.074219 323.765625 191.085938 323.882812 195.957031 322.917969 C 197.101562 311.542969 200.269531 300.453125 202.027344 289.160156 Z M 54.257812 298.566406 C 54.527344 304.832031 56.679688 310.835938 57.554688 317.03125 C 61.996094 318.332031 66.589844 319.058594 71.179688 319.660156 C 73.148438 314.207031 68.933594 307.164062 68.816406 300.972656 L 68.433594 300.796875 C 63.660156 300.308594 59.070312 298.65625 54.257812 298.566406 Z M 166.972656 299.050781 C 161.632812 299.511719 156.28125 300.394531 151.085938 301.710938 C 150.527344 309.296875 149.964844 316.972656 150.257812 324.566406 C 150.601562 324.628906 151.285156 324.746094 151.625 324.804688 L 156.605469 324.804688 C 159.25 324.542969 161.898438 324.386719 164.554688 324.367188 C 165.625 315.957031 166.5 307.507812 166.972656 299.050781 Z M 85.527344 303.03125 C 86.007812 309.363281 87.867188 315.566406 88.925781 321.84375 C 93.765625 322.375 98.613281 322.769531 103.480469 322.882812 C 102.382812 316.605469 102.121094 310.085938 100.21875 303.996094 C 95.292969 304.105469 90.433594 303.128906 85.527344 303.03125 Z M 124.308594 303.503906 C 122.019531 303.496094 119.800781 303.695312 117.835938 304.582031 C 117.792969 311.003906 119.566406 317.367188 119.601562 323.824219 C 124.320312 324.253906 129.066406 324.40625 133.808594 324.441406 C 134.515625 317.496094 133.878906 310.429688 133.101562 303.511719 C 130.308594 303.851562 127.25 303.507812 124.308594 303.503906 Z M 124.308594 303.503906 "/>
</g>
</svg>
