

<svg width="145" height="122" viewBox="0 0 145 122" fill="none" xmlns="http://www.w3.org/2000/svg">
<path d="M40.151 29.8865C40.151 24.0279 45.7958 19.2785 52.7589 19.2785C59.7221 19.2785 65.3668 24.0279 65.3668 29.8865C65.3668 35.7451 59.7221 40.4945 52.7589 40.4945C45.7958 40.4945 40.151 35.7451 40.151 29.8865Z" fill="black"/>
<path d="M44.827 25.732C44.827 24.3416 46.1667 23.2145 47.8192 23.2145C49.4717 23.2145 50.8113 24.3416 50.8113 25.732C50.8113 27.1224 49.4717 28.2496 47.8192 28.2496C46.1667 28.2496 44.827 27.1224 44.827 25.732Z" fill="white"/>
<path d="M53.928 111.681H44.6108L33.022 79.687H46.1911L53.928 111.681ZM59.3273 79.687L63.2125 111.681H72.4965V79.687H59.3273ZM85.6655 79.687L81.7807 111.681H91.0979L98.8346 79.687H85.6655Z" fill="black"/>
<path d="M63.2125 111.681H53.9282L46.1913 79.687H59.3275L63.2125 111.681ZM72.4965 79.687V111.681H81.7807L85.6655 79.687H72.4965ZM98.8346 79.687L91.0979 111.681H100.382L111.971 79.687H98.8346Z" fill="black"/>
<path d="M39.9392 10.4841L40.3617 7.73724C45.0064 8.24189 53.5877 11.3356 54.332 19.3698C53.8152 19.3154 53.2924 19.2783 52.7581 19.2783C52.1688 19.2783 51.5935 19.3242 51.0259 19.3902C50.1535 11.7055 40.3755 10.5313 39.9392 10.4841ZM112.546 60.2182C110.742 62.2079 107.923 63.5126 104.719 63.5126H40.2808C37.0766 63.5126 34.2582 62.2081 32.4539 60.2182C27.1252 62.8617 23.5392 67.7266 23.5392 73.3082C23.5392 76.8248 26.9275 79.6755 31.1069 79.6755H113.893C118.073 79.6755 121.461 76.8248 121.461 73.3082C121.461 67.7266 117.875 62.8617 112.546 60.2182Z" fill="black"/>
<path d="M60.4277 37.6717C60.4277 38.4369 59.6906 39.0571 58.7811 39.0571H52.7585C51.8491 39.0571 51.1119 38.4369 51.1119 37.6717C51.1119 36.9065 51.8491 36.2863 52.7585 36.2863H58.7811C59.6908 36.2863 60.4277 36.9065 60.4277 37.6717ZM44.0479 48.2718H38.0243C37.1149 48.2718 36.3777 48.892 36.3777 49.6572C36.3777 50.4224 37.1149 51.0426 38.0243 51.0426H44.0479C44.9574 51.0426 45.6945 50.4224 45.6945 49.6572C45.6945 48.8921 44.9576 48.2718 44.0479 48.2718ZM66.1159 28.3494C67.0253 28.3494 67.7625 27.7292 67.7625 26.964C67.7625 26.1988 67.0253 25.5786 66.1159 25.5786H63.8905C62.981 25.5786 62.2439 26.1988 62.2439 26.964C62.2439 27.7292 62.981 28.3494 63.8905 28.3494H66.1159Z" fill="#FFF4DA"/>
<path d="M114.419 51.8322C114.521 52.3107 114.595 52.798 114.595 53.3011V55.2034C114.595 59.7924 110.173 63.5124 104.719 63.5124H40.2808C34.8269 63.5124 30.4056 59.7922 30.4056 55.2034V53.3011C30.4056 52.798 30.4795 52.3107 30.5814 51.8322C31.4083 55.718 35.425 58.6724 40.2808 58.6724H104.719C109.575 58.6726 113.592 55.718 114.419 51.8322ZM98.7751 35.9632C99.5946 40.463 93.4781 41.9925 63.8907 44.9925H99.1122C100.014 43.7389 100.563 42.2846 100.563 40.7121C100.563 38.9431 99.8954 37.3107 98.7751 35.9632Z" fill="black"/>
<path d="M104.728 45.0003H63.8851C93.4744 41.9963 99.5863 40.4619 98.7714 35.9561C97.0058 33.8014 94.0371 32.3974 90.6806 32.3974H86.7806C87.0522 31.8585 87.2851 31.2871 87.3627 30.6831C87.3627 30.6831 90.2537 14.8314 70.9673 14.505C75.2358 17.0679 72.694 23.5002 65.1269 23.5002C60.936 23.5002 57.5403 26.3571 57.5403 29.8832C57.5403 30.7813 57.7538 31.63 58.1613 32.3974H54.3196C48.8674 32.3974 44.4437 36.1195 44.4437 40.7069C44.4437 42.2903 44.987 43.7433 45.8796 45.0003H40.2721C35.402 45.0003 31.405 47.9715 30.6094 51.8731C31.4439 55.7585 35.4409 58.6644 40.2721 58.6644H104.728C109.56 58.6644 113.556 55.7587 114.391 51.8731C113.595 47.9715 109.598 45.0003 104.728 45.0003ZM44.0479 51.0427H38.0243C37.1148 51.0427 36.3777 50.4225 36.3777 49.6573C36.3777 48.8921 37.1148 48.2719 38.0243 48.2719H44.0479C44.9574 48.2719 45.6945 48.8921 45.6945 49.6573C45.6945 50.4225 44.9576 51.0427 44.0479 51.0427ZM58.7811 39.0571H52.7585C51.8491 39.0571 51.1119 38.4369 51.1119 37.6717C51.1119 36.9065 51.8491 36.2863 52.7585 36.2863H58.7811C59.6905 36.2863 60.4277 36.9065 60.4277 37.6717C60.4277 38.4369 59.6908 39.0571 58.7811 39.0571ZM62.2439 26.9639C62.2439 26.1987 62.981 25.5785 63.8905 25.5785H66.1159C67.0253 25.5785 67.7624 26.1987 67.7624 26.9639C67.7624 27.7291 67.0253 28.3493 66.1159 28.3493H63.8905C62.981 28.3493 62.2439 27.7291 62.2439 26.9639Z" fill="black"/>
</svg>

<svg width="145" height="122" viewBox="0 0 145 122" fill="none" xmlns="http://www.w3.org/2000/svg">
<path d="M40.151 29.8865C40.151 24.0279 45.7958 19.2785 52.7589 19.2785C59.7221 19.2785 65.3668 24.0279 65.3668 29.8865C65.3668 35.7451 59.7221 40.4945 52.7589 40.4945C45.7958 40.4945 40.151 35.7451 40.151 29.8865Z" fill="black"/>
<path d="M53.928 111.681H44.6108L33.022 79.687H46.1911L53.928 111.681ZM59.3273 79.687L63.2125 111.681H72.4965V79.687H59.3273ZM85.6655 79.687L81.7807 111.681H91.0979L98.8346 79.687H85.6655Z" fill="black"/>
<path d="M63.2125 111.681H53.9282L46.1913 79.687H59.3275L63.2125 111.681ZM72.4965 79.687V111.681H81.7807L85.6655 79.687H72.4965ZM98.8346 79.687L91.0979 111.681H100.382L111.971 79.687H98.8346Z" fill="black"/>
<path d="M39.9392 10.4841L40.3617 7.73724C45.0064 8.24189 53.5877 11.3356 54.332 19.3698C53.8152 19.3154 53.2924 19.2783 52.7581 19.2783C52.1688 19.2783 51.5935 19.3242 51.0259 19.3902C50.1535 11.7055 40.3755 10.5313 39.9392 10.4841ZM112.546 60.2182C110.742 62.2079 107.923 63.5126 104.719 63.5126H40.2808C37.0766 63.5126 34.2582 62.2081 32.4539 60.2182C27.1252 62.8617 23.5392 67.7266 23.5392 73.3082C23.5392 76.8248 26.9275 79.6755 31.1069 79.6755H113.893C118.073 79.6755 121.461 76.8248 121.461 73.3082C121.461 67.7266 117.875 62.8617 112.546 60.2182Z" fill="black"/>
<path d="M60.4277 37.6717C60.4277 38.4369 59.6906 39.0571 58.7811 39.0571H52.7585C51.8491 39.0571 51.1119 38.4369 51.1119 37.6717C51.1119 36.9065 51.8491 36.2863 52.7585 36.2863H58.7811C59.6908 36.2863 60.4277 36.9065 60.4277 37.6717ZM44.0479 48.2718H38.0243C37.1149 48.2718 36.3777 48.892 36.3777 49.6572C36.3777 50.4224 37.1149 51.0426 38.0243 51.0426H44.0479C44.9574 51.0426 45.6945 50.4224 45.6945 49.6572C45.6945 48.8921 44.9576 48.2718 44.0479 48.2718ZM66.1159 28.3494C67.0253 28.3494 67.7625 27.7292 67.7625 26.964C67.7625 26.1988 67.0253 25.5786 66.1159 25.5786H63.8905C62.981 25.5786 62.2439 26.1988 62.2439 26.964C62.2439 27.7292 62.981 28.3494 63.8905 28.3494H66.1159Z" fill="black"/>
<path d="M114.419 51.8322C114.521 52.3107 114.595 52.798 114.595 53.3011V55.2034C114.595 59.7924 110.173 63.5124 104.719 63.5124H40.2808C34.8269 63.5124 30.4056 59.7922 30.4056 55.2034V53.3011C30.4056 52.798 30.4795 52.3107 30.5814 51.8322C31.4083 55.718 35.425 58.6724 40.2808 58.6724H104.719C109.575 58.6726 113.592 55.718 114.419 51.8322ZM98.7751 35.9632C99.5946 40.463 93.4781 41.9925 63.8907 44.9925H99.1122C100.014 43.7389 100.563 42.2846 100.563 40.7121C100.563 38.9431 99.8954 37.3107 98.7751 35.9632Z" fill="black"/>
<path d="M104.728 45.0003H63.8851C93.4744 41.9963 99.5863 40.4619 98.7714 35.9561C97.0058 33.8014 94.0371 32.3974 90.6806 32.3974H86.7806C87.0522 31.8585 87.2851 31.2871 87.3627 30.6831C87.3627 30.6831 90.2537 14.8314 70.9673 14.505C75.2358 17.0679 72.694 23.5002 65.1269 23.5002C60.936 23.5002 57.5403 26.3571 57.5403 29.8832C57.5403 30.7813 57.7538 31.63 58.1613 32.3974H54.3196C48.8674 32.3974 44.4437 36.1195 44.4437 40.7069C44.4437 42.2903 44.987 43.7433 45.8796 45.0003H40.2721C35.402 45.0003 31.405 47.9715 30.6094 51.8731C31.4439 55.7585 35.4409 58.6644 40.2721 58.6644H104.728C109.56 58.6644 113.556 55.7587 114.391 51.8731C113.595 47.9715 109.598 45.0003 104.728 45.0003ZM44.0479 51.0427H38.0243C37.1148 51.0427 36.3777 50.4225 36.3777 49.6573C36.3777 48.8921 37.1148 48.2719 38.0243 48.2719H44.0479C44.9574 48.2719 45.6945 48.8921 45.6945 49.6573C45.6945 50.4225 44.9576 51.0427 44.0479 51.0427ZM58.7811 39.0571H52.7585C51.8491 39.0571 51.1119 38.4369 51.1119 37.6717C51.1119 36.9065 51.8491 36.2863 52.7585 36.2863H58.7811C59.6905 36.2863 60.4277 36.9065 60.4277 37.6717C60.4277 38.4369 59.6908 39.0571 58.7811 39.0571ZM62.2439 26.9639C62.2439 26.1987 62.981 25.5785 63.8905 25.5785H66.1159C67.0253 25.5785 67.7624 26.1987 67.7624 26.9639C67.7624 27.7291 67.0253 28.3493 66.1159 28.3493H63.8905C62.981 28.3493 62.2439 27.7291 62.2439 26.9639Z" fill="black"/>
<path d="M40.5565 58.6676C40.5422 58.6735 40.4578 58.7203 40.4379 58.6982C40.4146 58.6722 40.4762 58.6463 40.4905 58.6407C40.5286 58.6259 40.5604 58.6236 40.6005 58.6236" stroke="white" stroke-width="3" stroke-linecap="round"/>
<path d="M39.9622 58.1283C40.006 58.2824 40.0437 58.4389 40.0943 58.5905" stroke="black" stroke-width="3" stroke-linecap="round"/>
<path d="M40.0943 58.5906C40.301 58.6623 40.5406 58.6346 40.7558 58.6346C40.9014 58.6346 41.0737 58.6596 41.2034 58.5771C41.2871 58.5239 41.3948 58.4263 41.393 58.3191C41.3916 58.2375 41.3354 58.195 41.256 58.2078C41.1937 58.2178 41.1515 58.2605 41.1068 58.302C41.0323 58.3711 40.9585 58.4415 40.8879 58.5147C40.7068 58.7029 40.51 58.8761 40.3688 59.0987C40.3033 59.202 40.2338 59.3269 40.1897 59.4417C40.1744 59.4813 40.1787 59.5321 40.1487 59.564C40.1194 59.5951 40.0399 59.5844 40.0013 59.5787C39.8374 59.5544 39.7147 59.4063 39.588 59.3133C39.0479 58.917 38.3484 58.8526 37.7488 58.5777C37.5948 58.5072 37.4441 58.4293 37.2896 58.3601C37.1409 58.2934 36.9861 58.2422 36.8365 58.1778C36.8053 58.1644 36.7179 58.1418 36.6934 58.1173" stroke="black" stroke-width="3" stroke-linecap="round"/>
<path d="M32.4871 53.3273C32.3991 53.344 32.273 53.3611 32.1816 53.3408C32.166 53.3373 32.1993 53.2534 32.2085 53.2424C32.2233 53.2246 32.2113 53.1981 32.2228 53.1773C32.244 53.1391 32.2302 53.0814 32.2585 53.0495C32.2898 53.0143 32.2728 52.9252 32.2728 52.8813C32.2728 52.8217 32.3014 52.775 32.3014 52.7202C32.3014 52.6512 32.2307 52.6691 32.2165 52.6195C32.2063 52.5839 32.161 52.5579 32.13 52.5385C32.1012 52.5205 32.1147 52.4178 32.1014 52.3846" stroke="black" stroke-width="3" stroke-linecap="round"/>
<path d="M32.1014 52.3846C32.1001 52.3299 32.0954 52.3071 32.0586 52.2703" stroke="black" stroke-width="3" stroke-linecap="round"/>
<path d="M32.4299 53.7986C32.4299 54.0741 32.404 54.3634 32.4791 54.6318C32.4996 54.7049 32.5426 54.766 32.5728 54.8381C32.6227 54.9574 32.773 55.0613 32.8648 55.1468C32.9562 55.2319 33.1016 55.2991 33.1584 55.4126" stroke="black" stroke-width="3" stroke-linecap="round"/>
<path d="M40.1243 79.6815C38.7322 79.8703 37.1052 79.7104 35.7925 79.2728" stroke="black" stroke-width="3" stroke-linecap="round"/>
<path d="M37.7535 79.598C37.539 79.6667 37.3279 79.6536 37.1048 79.6536C36.9995 79.6536 36.8767 79.6693 36.7752 79.6392C36.716 79.6217 36.6242 79.6166 36.5631 79.6166C36.4745 79.6166 36.4026 79.5609 36.317 79.5609C36.1607 79.5609 36.0067 79.4683 35.8443 79.4683C35.7911 79.4683 35.7613 79.4561 35.7145 79.4353C35.6797 79.4198 35.6358 79.4383 35.5992 79.4271C35.5447 79.4103 35.4491 79.3862 35.4097 79.3467C35.3731 79.3101 35.3273 79.2458 35.3067 79.1995C35.277 79.1327 35.1912 79.0828 35.1759 79.0141C35.1638 78.9595 35.0899 78.897 35.0482 78.8658C34.9933 78.8246 34.9628 78.7569 34.9133 78.7124C34.8249 78.6328 34.7752 78.4913 34.6682 78.4302C34.5798 78.3797 34.7533 78.0966 34.6023 78.0966" stroke="black" stroke-width="3" stroke-linecap="round"/>
<path d="M34.5282 78.7639C34.5282 78.843 34.5262 79.0783 34.5107 79.0007C34.5022 78.9584 34.4911 78.9185 34.4911 78.8751" stroke="black" stroke-width="3" stroke-linecap="round"/>
<path d="M33.6406 79.4766C33.6129 79.4818 33.5885 79.4844 33.5603 79.4844C33.551 79.4844 33.5415 79.4848 33.5321 79.4844C33.5239 79.484 33.548 79.4699 33.5508 79.4679C33.5643 79.458 33.5822 79.4556 33.5937 79.4453C33.5991 79.4405 33.6038 79.4435 33.6094 79.4405C33.6159 79.4371 33.6166 79.4318 33.625 79.4297" stroke="black" stroke-linecap="round"/>
<path d="M33.3125 79.293C33.3058 79.298 33.2994 79.3032 33.293 79.3086" stroke="black" stroke-linecap="round"/>
<path d="M48.656 80.0615C48.3377 79.5177 47.8788 79.585 47.2915 79.585C46.9786 79.585 46.7026 79.4984 46.3842 79.4984C46.0408 79.4984 45.6975 79.4984 45.3541 79.4984C44.6789 79.4984 44.0384 79.2385 43.3615 79.2385C42.8656 79.2385 42.4418 79.2592 41.9656 79.3925C41.6675 79.4759 40.7705 79.6635 41.08 79.6717C42.0914 79.6983 43.0875 79.5273 44.0955 79.4839C45.6835 79.4157 47.2785 79.4551 48.8678 79.4551C49.9668 79.4551 51.0659 79.4551 52.1649 79.4551C53.9538 79.4551 55.7427 79.4551 57.5317 79.4551C59.8973 79.4551 62.2896 79.4984 64.6409 79.4984" stroke="black" stroke-linecap="round"/>
<path d="M95.3247 80.2911C94.2579 80.0824 93.2988 79.7803 92.1978 79.7334C91.0429 79.6843 89.9201 79.517 88.7738 79.386C87.5611 79.2474 86.3401 79.2765 85.1304 79.4225C83.4071 79.6305 81.6716 79.7151 79.9372 79.7151C79.1021 79.7151 78.2671 79.7151 77.432 79.7151C76.9249 79.7151 76.4473 79.5593 75.9509 79.5505C72.1959 79.4847 68.4337 79.5505 64.6777 79.5505C64.2863 79.5505 64.8166 79.5505 64.9062 79.5505C65.6621 79.5505 66.4179 79.5505 67.1737 79.5505C69.6915 79.5505 72.2891 79.7399 74.7989 79.514C75.5404 79.4472 76.266 79.2643 77.0069 79.1894C77.759 79.1133 78.5195 79.1391 79.2743 79.1391C81.2461 79.1391 83.2236 79.0942 85.1944 79.1574C87.3372 79.2261 89.4556 79.386 91.6035 79.386C92.9978 79.386 94.3921 79.386 95.7864 79.386C96.5255 79.386 97.2645 79.386 98.0036 79.386C100.402 79.386 102.801 79.386 105.199 79.386" stroke="black" stroke-linecap="round"/>
<path d="M107.104 79.4843C106.993 79.5474 106.894 79.6158 106.763 79.6158C106.689 79.6158 106.617 79.6249 106.544 79.6426C106.427 79.6711 106.345 79.7034 106.221 79.7034C106.099 79.7034 105.977 79.7034 105.855 79.7034C105.685 79.7034 105.98 79.7034 106.01 79.7034C106.238 79.7034 106.467 79.7034 106.695 79.7034C107.016 79.7034 107.336 79.7034 107.657 79.7034C107.747 79.7034 107.837 79.7034 107.927 79.7034C107.936 79.7034 108.016 79.7034 107.978 79.7034C107.756 79.7034 107.582 79.749 107.366 79.7996C106.984 79.8892 106.575 79.8643 106.184 79.8799C105.99 79.8877 105.799 79.9006 105.605 79.9006C105.515 79.9006 105.436 79.9043 105.362 79.8471C105.312 79.8079 105.646 79.7586 105.678 79.7521C105.948 79.697 106.198 79.6596 106.474 79.6596C106.928 79.6596 107.379 79.5939 107.832 79.5939C108.056 79.5939 108.281 79.5939 108.505 79.5939C108.849 79.5939 109.193 79.5939 109.537 79.5939C109.676 79.5939 109.814 79.5939 109.952 79.5939C110.062 79.5939 110.242 79.6279 110.325 79.5501C110.387 79.4915 110.569 79.449 110.653 79.4405C110.767 79.4291 110.881 79.331 110.993 79.331C111.097 79.331 111.193 79.3091 111.3 79.3091C111.409 79.3091 111.525 79.2433 111.639 79.2433" stroke="black" stroke-linecap="round"/>
<path d="M111.322 79.2335C111.39 79.2201 111.467 79.2291 111.537 79.2291C111.568 79.2291 111.586 79.2309 111.61 79.2492C111.62 79.2572 111.627 79.2688 111.641 79.2688C111.656 79.2688 111.669 79.2685 111.683 79.2732" stroke="black" stroke-linecap="round"/>
<path d="M107.988 56.6763C107.988 57.1056 108.091 57.5991 107.873 57.97C107.827 58.0485 107.74 58.0629 107.729 58.1641C107.694 58.4983 107.091 58.6842 106.823 58.7966C106.575 58.9013 106.108 59.0087 105.839 58.926C105.348 58.7749 104.751 58.8757 104.236 58.8757C103.965 58.8757 103.694 58.8757 103.424 58.8757C103.404 58.8757 104.007 58.8793 104.171 58.8757C104.755 58.863 105.431 58.6123 105.954 58.3582C106.437 58.1233 106.84 57.8899 107.262 57.5819C107.526 57.3886 107.807 57.266 108.063 57.0608C108.29 56.8792 108.563 56.7621 108.825 56.6439C108.952 56.5869 109.006 56.4681 109.12 56.4175C109.389 56.2977 109.653 55.9819 109.864 55.7706C110.185 55.449 110.391 55.0338 110.737 54.7643C110.891 54.6446 111.027 54.5995 111.19 54.5092C111.395 54.3951 111.608 54.2077 111.837 54.157C112.175 54.0818 112.48 53.9593 112.84 53.9593" stroke="black" stroke-linecap="round"/>
<path d="M108.799 57.4889C109.12 57.5582 109.625 57.7603 109.96 57.6385C109.966 57.6363 110.087 57.589 110.075 57.5843C109.961 57.541 109.777 57.5986 109.669 57.6254C109.343 57.7057 109.019 57.7899 108.687 57.8391C108.329 57.8921 107.96 57.8826 107.599 57.9032C107.522 57.9076 107.59 57.9724 107.622 57.9904C107.731 58.0531 107.877 58.0733 108.001 58.0792C108.344 58.0955 108.721 58.1229 108.976 57.8605C109.37 57.4561 109.727 57.0002 110.101 56.578C110.399 56.2417 110.815 56.0673 111.186 55.8299C111.464 55.6523 111.829 55.551 112.066 55.3136C112.167 55.2127 112.27 55.0548 112.393 54.9897C112.507 54.9296 112.711 54.7921 112.771 54.6773C112.89 54.4538 112.943 54.2071 113.046 53.9801C113.167 53.7143 113.209 53.5191 113.209 53.227C113.209 53.1172 113.34 53.0791 113.431 53.0791C113.539 53.0791 113.649 53.1625 113.681 53.2731C113.691 53.3094 113.682 53.4244 113.682 53.3865C113.682 53.3334 113.682 53.2802 113.682 53.227C113.682 53.1606 113.741 53.1348 113.741 53.0643C113.741 53.0001 113.741 52.936 113.741 52.8719" stroke="black" stroke-linecap="round"/>
<path d="M113.524 53.8297C113.606 53.8615 113.591 53.8756 113.634 53.94" stroke="black" stroke-linecap="round"/>
<path d="M113.634 52.2374C113.753 52.2148 113.756 52.2697 113.849 52.3109C113.881 52.3252 113.869 52.33 113.849 52.3109C113.831 52.2922 113.816 52.2607 113.794 52.2496" stroke="black" stroke-linecap="round"/>
<path d="M113.794 52.2496C113.794 52.1696 113.772 52.1056 113.855 52.0781" stroke="black" stroke-linecap="round"/>
<path d="M113.843 52.0047C113.859 51.9843 113.881 51.9654 113.892 51.9434" stroke="black" stroke-linecap="round"/>
<path d="M106.652 63.5083C103.961 63.4722 101.265 63.5445 98.5749 63.4789C98.4859 63.4767 98.3982 63.472 98.3102 63.4587C98.2894 63.4556 98.2362 63.4636 98.2482 63.4464C98.2685 63.4174 98.3803 63.3979 98.3969 63.3937C98.7087 63.3158 99.0282 63.2595 99.3444 63.2033C100.065 63.0751 100.783 63.01 101.515 63.0067C102.294 63.0031 103.079 63.0386 103.856 62.9788C104.366 62.9395 104.863 62.9231 105.376 62.9231C105.43 62.9231 105.487 62.9175 105.54 62.9246C105.641 62.938 105.36 63.0181 105.265 63.0547C104.718 63.2652 104.243 63.3191 103.661 63.3117C102.936 63.3024 102.213 63.2365 101.487 63.2234C101.039 63.2153 100.59 63.2017 100.142 63.2017C99.5541 63.2017 98.9688 63.146 98.3814 63.146C98.3364 63.146 98.151 63.146 98.1848 63.146C98.7468 63.146 99.3088 63.146 99.8708 63.146C100.936 63.146 102.001 63.146 103.066 63.146C103.55 63.146 104.024 63.145 104.503 63.0918C104.51 63.091 104.532 63.0903 104.525 63.0903C104.376 63.0903 104.228 63.0914 104.079 63.0965C103.203 63.1262 102.329 63.1408 101.453 63.1476C100.568 63.1544 99.7135 63.225 98.8397 63.3628C98.3703 63.4368 97.8979 63.5362 97.4215 63.5362C96.8534 63.5362 96.2848 63.5601 95.7215 63.4866C95.5825 63.4685 95.4499 63.4772 95.3128 63.4386C95.1347 63.3885 94.9592 63.4138 94.7786 63.3813C94.7252 63.3717 94.5938 63.3259 94.6997 63.2792C95.097 63.1039 95.5301 62.9964 95.9475 62.8828C96.5012 62.7321 97.0507 62.6028 97.6258 62.5732C97.9759 62.5551 98.3683 62.6182 98.7096 62.5329" stroke="black" stroke-linecap="round"/>
<path d="M103.169 58.687C103.225 58.6407 103.272 58.6067 103.165 58.6034C102.893 58.595 102.619 58.6016 102.346 58.605C101.362 58.6173 100.371 58.7081 99.3955 58.8372C98.7193 58.9267 98.0369 58.7707 97.3595 58.7707C97.1371 58.7707 96.9147 58.7707 96.6923 58.7707C96.5828 58.7707 96.5361 58.7817 96.6953 58.7676C96.9555 58.7444 97.2798 58.685 97.519 58.5787C97.5261 58.5755 97.4059 58.5754 97.3874 58.5756C97.1052 58.5785 96.8245 58.6063 96.5436 58.6313C95.6332 58.7125 94.7238 58.7149 93.811 58.7149C93.7036 58.7149 93.3816 58.7149 93.4889 58.7149C93.9039 58.7149 94.3188 58.7159 94.7337 58.7149C95.8715 58.7122 97.0084 58.6673 98.1461 58.6592C98.6197 58.6558 99.0877 58.581 99.5612 58.5756C100.058 58.5698 101.546 58.5634 101.051 58.526C100.865 58.5121 100.659 58.5933 100.484 58.6375C99.9771 58.7655 99.4678 58.869 98.9465 58.9177C97.704 59.0339 96.4686 58.9047 95.2276 58.8543C94.7693 58.8356 94.2939 58.8271 93.8419 58.7428C93.4426 58.6682 93.0355 58.6766 92.6358 58.6158C92.2407 58.5557 91.844 58.509 91.4483 58.4517C91.2991 58.4301 91.1411 58.3805 90.9901 58.3805C90.6916 58.3805 90.5304 58.45 90.2949 58.6607C90.1089 58.8271 90.0139 58.9657 89.7639 58.9657C89.5391 58.9657 89.3456 58.8543 89.1167 58.8543C88.8289 58.8543 88.5405 58.8485 88.2528 58.8543C88.0267 58.8588 87.8076 58.9293 87.5839 58.9379C87.5642 58.9386 87.7387 58.9379 87.7852 58.9379" stroke="black" stroke-linecap="round"/>
<path d="M87.8293 58.541C87.0328 58.546 85.3802 58.555 84.5059 58.5648C84.1999 58.5682 83.8899 58.5378 83.588 58.5885C83.5382 58.5969 83.6862 58.6128 83.7357 58.6228C83.9455 58.6652 84.1566 58.699 84.3688 58.727C84.9497 58.8036 85.5475 58.8213 86.1333 58.8259C86.5639 58.8293 86.9986 58.8729 87.4297 58.8483C87.4728 58.8458 87.5045 58.8322 87.5431 58.8153C87.5629 58.8067 87.6165 58.8151 87.6051 58.7969C87.5792 58.7555 87.4048 58.7784 87.3677 58.7784C87.1655 58.7784 86.9633 58.7784 86.7611 58.7784C85.2142 58.7784 83.6698 58.8496 82.1228 58.8496C81.3424 58.8496 80.5497 58.8396 79.7741 58.752C79.4455 58.7149 79.1198 58.6394 78.7876 58.636C78.3226 58.6312 77.8573 58.636 77.3923 58.636C76.9589 58.636 76.5254 58.636 76.092 58.636C75.8988 58.636 75.6927 58.6741 75.5038 58.7125C75.4048 58.7326 75.3268 58.7784 75.2242 58.7784" stroke="black" stroke-linecap="round"/>
<path d="M68.7437 58.5885C69.6782 58.5885 70.6128 58.5885 71.5474 58.5885C72.1797 58.5885 72.8022 58.5079 73.4333 58.4949C73.9235 58.4847 74.4148 58.4935 74.9051 58.4935C74.9646 58.4935 75.2443 58.4953 75.2005 58.5173" stroke="black" stroke-linecap="round"/>
<path d="M68.9335 58.7784C68.3621 58.7713 67.8003 58.6123 67.2323 58.6123C66.8024 58.6123 66.3724 58.6123 65.9425 58.6123C65.2857 58.6123 64.629 58.6123 63.9722 58.6123C63.2996 58.6123 62.6271 58.6123 61.9545 58.6123C61.7152 58.6123 61.472 58.6007 61.2331 58.6136C61.0442 58.6238 60.8609 58.7072 60.6726 58.7072" stroke="black" stroke-linecap="round"/>
<path d="M60.2928 58.7784C60.1376 58.7481 59.9867 58.7557 59.8286 58.7547C59.6332 58.7534 59.4398 58.731 59.2443 58.731C58.8538 58.731 58.4644 58.7547 58.0746 58.7547C57.8741 58.7547 57.6736 58.753 57.4732 58.7547C57.2085 58.757 56.9498 58.8192 56.6846 58.8246C56.2484 58.8335 55.8113 58.8259 55.375 58.8259C55.1279 58.8259 54.8809 58.8259 54.6338 58.8259C54.4928 58.8259 54.3344 58.8481 54.1973 58.8074C53.9442 58.7324 53.6561 58.7909 53.3955 58.7441C52.8499 58.6462 52.268 58.8162 51.7232 58.7072" stroke="black" stroke-linecap="round"/>
<path d="M47.0468 58.7309C48.4201 58.7309 49.7934 58.7309 51.1667 58.7309C51.3162 58.7309 51.4656 58.7309 51.6151 58.7309C51.6854 58.7309 51.7558 58.7309 51.8261 58.7309C51.8519 58.7309 51.643 58.7309 51.6032 58.7309C50.5855 58.7309 49.5684 58.7805 48.5502 58.7441C47.8521 58.7192 47.156 58.6835 46.4573 58.6835C46.043 58.6835 45.6287 58.6597 45.2136 58.6597C45.0677 58.6597 44.9217 58.6597 44.7758 58.6597C44.6401 58.6597 44.4697 58.6308 44.3393 58.6716C44.2422 58.7019 44.1452 58.7589 44.0452 58.7771C43.9268 58.7986 43.7821 58.7815 43.6627 58.7784C43.4918 58.774 43.3266 58.7309 43.1537 58.7309" stroke="black" stroke-linecap="round"/>
<path d="M63.5685 45.182C64.5986 44.9613 65.5748 44.7423 66.6248 44.7423C67.0896 44.7423 67.5509 44.6986 68.0145 44.6934C68.197 44.6914 68.3804 44.6997 68.5628 44.6934C68.7238 44.6879 68.918 44.5981 68.6008 44.5957C67.2297 44.5853 65.7438 44.4438 64.3991 44.7532C63.9533 44.8557 63.4912 44.8723 63.0365 44.9269C62.7633 44.9597 61.954 44.943 62.2168 45.0246C62.4412 45.0942 62.7459 45.0642 62.9768 45.0734C63.4396 45.092 63.9035 45.0843 64.3665 45.0843C65.9499 45.0843 67.5332 45.0843 69.1165 45.0843C70.224 45.0843 71.3314 45.0843 72.4388 45.0843C73.2663 45.0843 74.083 44.9914 74.9034 44.8889" stroke="black" stroke-linecap="round"/>
<path d="M75.1528 45.0265C75.9313 45.036 76.7096 45.0459 77.4882 45.0459C77.6064 45.0459 77.7256 44.9877 77.8422 44.9704C78.2953 44.9029 78.7787 44.9488 79.2354 44.9488C79.6736 44.9488 80.1117 44.9488 80.5499 44.9488C80.6569 44.9488 80.766 44.9099 80.8769 44.9099C81.4027 44.9099 81.9215 44.8322 82.4482 44.8322C82.6906 44.8322 82.9331 44.8322 83.1756 44.8322" stroke="black" stroke-linecap="round"/>
<path d="M83.6612 44.9876C83.8398 45.0556 84.0416 45.0426 84.23 45.047C84.5534 45.0545 84.8719 45.1042 85.1958 45.1042C85.5639 45.1042 85.9319 45.1042 86.2999 45.1042C86.878 45.1042 87.472 45.1486 88.0428 45.0448C88.2711 45.0033 88.509 44.938 88.7389 44.911C88.9274 44.8888 89.1289 44.9099 89.3184 44.9099C89.4544 44.9099 89.5903 44.9099 89.7263 44.9099C89.9215 44.9099 90.1093 44.9488 90.3026 44.9488C90.4289 44.9488 90.5481 44.9682 90.6739 44.9682" stroke="black" stroke-linecap="round"/>
<path d="M96.0159 45.0459C95.5187 45.0459 95.0216 45.0459 94.5244 45.0459C94.2485 45.0459 93.9726 45.0459 93.6967 45.0459C93.3684 45.0459 93.0412 45.0847 92.7125 45.0847C92.3629 45.0847 92.0113 45.097 91.6624 45.1193C91.4475 45.133 91.2299 45.1072 91.016 45.1333C90.8562 45.1528 90.6953 45.131 90.5379 45.1625" stroke="black" stroke-linecap="round"/>
<path d="M96.5987 44.9876C97.0138 44.9876 97.4142 44.9488 97.8268 44.9488C98.0765 44.9488 98.3415 44.9682 98.5801 44.9682" stroke="black" stroke-linecap="round"/>
<path d="M98.381 37.5277C98.4078 37.528 98.439 37.5149 98.4613 37.5297C98.4952 37.5521 98.4728 37.6542 98.472 37.6603C98.452 37.8102 98.4295 37.9809 98.3742 38.123C98.3658 38.1447 98.4859 38.0578 98.5025 38.0412C98.5511 37.9926 98.6148 37.9363 98.6491 37.8762C98.6584 37.8599 98.6685 37.8486 98.6685 37.8288C98.6685 37.6963 98.6772 37.5661 98.6772 37.4339C98.6772 37.3564 98.6772 37.279 98.6772 37.2016C98.6772 37.1625 98.6464 37.1281 98.6254 37.0966C98.6022 37.0617 98.5891 37.0312 98.5707 36.9964C98.5591 36.9744 98.513 36.9729 98.503 36.9528" stroke="black" stroke-linecap="round"/>
<path d="M98.4258 36.832C98.4354 36.794 98.452 36.7494 98.4805 36.7209C98.4965 36.7048 98.4767 36.7007 98.4627 36.6914C98.4384 36.6752 98.4122 36.6673 98.3887 36.6484C98.3791 36.6408 98.3863 36.6309 98.3806 36.6213C98.3732 36.6086 98.3564 36.6032 98.3446 36.5955C98.3355 36.5895 98.3202 36.5847 98.3127 36.576C98.306 36.5682 98.2977 36.5551 98.2891 36.5508" stroke="black" stroke-linecap="round"/>
<path d="M96.9883 36.5898C97.0151 36.5898 97.0349 36.5879 97.0586 36.6024C97.1061 36.6316 97.1556 36.6595 97.2012 36.6912C97.2401 36.7182 97.2946 36.7227 97.3407 36.7227C97.5037 36.7227 97.6434 36.6355 97.7852 36.5673C97.805 36.5577 97.8272 36.5454 97.8485 36.5399C97.8691 36.5347 97.8906 36.5305 97.908 36.5178C97.9315 36.5006 97.9574 36.4894 97.9805 36.4718C98.0165 36.4442 98.0503 36.409 98.0938 36.3945" stroke="black" stroke-linecap="round"/>
<path d="M98.1523 36.3398C98.1921 36.3327 98.2335 36.3304 98.2695 36.3134C98.2912 36.3031 98.3203 36.2982 98.3398 36.2852" stroke="black" stroke-linecap="round"/>
<path d="M98.2812 36.1719C98.284 36.1729 98.3086 36.186 98.3086 36.1758C98.3086 36.1714 98.3027 36.1717 98.3008 36.168" stroke="black" stroke-linecap="round"/>
<path d="M98.3477 36.3047C98.3589 36.3022 98.3659 36.299 98.375 36.293" stroke="black" stroke-linecap="round"/>
<path d="M98.3594 36.2852L98.3711 36.2656" stroke="black" stroke-linecap="round"/>
<path d="M98.2266 38.3242C98.2266 38.3676 98.2225 38.3988 98.1984 38.4366C98.1521 38.5091 98.1271 38.5913 98.084 38.6654C98.0604 38.706 98.0279 38.7365 97.9961 38.7704C97.9685 38.7998 97.9328 38.8332 97.8958 38.8505C97.8792 38.8583 97.8598 38.8622 97.8418 38.865C97.8068 38.8705 97.7752 38.8802 97.7422 38.8937C97.6688 38.9237 97.5927 38.9653 97.5312 39.0156" stroke="black" stroke-linecap="round"/>
<path d="M97.5977 39.2812C97.5084 39.2619 97.4257 39.2958 97.3401 39.3175C97.216 39.3488 97.0869 39.3679 96.9596 39.3798C96.9068 39.3847 96.8589 39.3833 96.8203 39.4219" stroke="black" stroke-linecap="round"/>
<path d="M96.5547 39.7695C96.4849 39.7708 96.4174 39.7938 96.352 39.8164C96.2737 39.8435 96.1962 39.8722 96.1194 39.9032C96.0649 39.9252 96.0113 39.9506 95.9564 39.9711C95.8277 40.0192 95.691 40.0374 95.559 40.0725C95.3888 40.1177 95.2197 40.1698 95.0471 40.2051C95.004 40.2139 94.9756 40.2439 94.9414 40.2695" stroke="black" stroke-linecap="round"/>
<path d="M94.2566 40.7356C93.9612 40.7605 93.5074 40.7978 93.1991 40.8268C93.0757 40.8385 92.9415 40.8468 92.8187 40.8751C92.7746 40.8853 92.7294 40.8819 92.6846 40.8826C92.6307 40.8835 92.5917 40.9271 92.5492 40.9554C92.5297 40.9684 92.5781 40.9683 92.5812 40.9684C92.6859 40.9701 92.7812 40.9593 92.882 40.9262C93.3564 40.7704 93.8117 40.5576 94.2824 40.3913C94.3727 40.3594 94.4721 40.3356 94.5567 40.2886C94.5845 40.2731 94.5692 40.3317 94.5669 40.3396C94.532 40.4568 94.4221 40.5482 94.3355 40.6268C94.0387 40.896 93.7068 41.0155 93.3141 41.0602C92.9211 41.1051 92.5408 41.2171 92.1497 41.2746" stroke="black" stroke-linecap="round"/>
<path d="M92.1743 41.1276C92.1997 41.0585 92.2201 40.9912 92.2355 40.9194" stroke="black" stroke-linecap="round"/>
<path d="M92.2967 39.474C92.3711 39.2371 92.443 38.9993 92.5213 38.7636C92.5919 38.5512 92.6498 38.3284 92.7384 38.1226C92.8024 37.9739 92.9156 37.819 93.0562 37.7347" stroke="black" stroke-linecap="round"/>
</svg>
