<?xml version="1.0" standalone="no"?>
<!DOCTYPE svg PUBLIC "-//W3C//DTD SVG 20010904//EN"
 "http://www.w3.org/TR/2001/REC-SVG-20010904/DTD/svg10.dtd">
<svg version="1.0" xmlns="http://www.w3.org/2000/svg"
 width="469.000000pt" height="636.000000pt" viewBox="0 0 469.000000 636.000000"
 preserveAspectRatio="xMidYMid meet">

<g transform="translate(0.000000,636.000000) scale(0.100000,-0.100000)"
fill="#000000" stroke="none">
<path d="M1862 6333 c1 -42 -9 -111 -28 -178 -9 -33 -17 -64 -18 -70 -4 -19
-69 -140 -98 -182 -16 -24 -26 -43 -22 -43 4 0 -2 -9 -14 -20 -12 -11 -41 -46
-64 -78 -171 -231 -224 -367 -214 -552 3 -52 6 -100 7 -107 3 -17 177 -106
195 -99 8 3 13 2 9 -3 -4 -7 59 -35 105 -46 3 -1 17 -7 31 -12 14 -6 39 -14
55 -17 16 -3 54 -13 84 -21 30 -9 69 -17 85 -19 17 -2 37 -6 45 -9 32 -12 169
-28 280 -33 63 -3 119 -9 124 -14 12 -12 -2 -13 -244 -10 -210 3 -253 5 -295
14 -17 3 -50 8 -75 11 -46 5 -205 40 -279 61 -18 6 -22 4 -16 -6 5 -9 4 -11
-4 -6 -6 4 -9 11 -6 15 4 8 -85 38 -94 32 -2 -1 -7 1 -10 6 -3 5 -48 25 -99
45 -71 28 -95 34 -105 25 -7 -7 -19 -13 -27 -15 -8 -2 -16 -8 -18 -13 -2 -5
-9 -9 -16 -9 -41 0 -280 -217 -316 -286 -8 -16 -18 -31 -21 -34 -4 -3 -27 -48
-52 -100 -49 -102 -71 -174 -87 -287 -10 -72 -6 -103 11 -103 6 0 19 -9 30
-19 38 -35 379 -201 379 -184 0 3 7 0 15 -7 8 -7 15 -9 15 -5 0 4 6 2 13 -4 8
-6 22 -12 33 -14 10 -2 31 -9 46 -15 26 -11 189 -56 238 -66 14 -3 67 -15 118
-26 150 -32 348 -58 549 -72 137 -9 177 -14 148 -20 -46 -8 -565 -11 -610 -4
-16 3 -68 8 -115 10 -47 3 -112 10 -145 15 -33 6 -80 13 -105 15 -25 3 -94 17
-155 31 -60 14 -121 28 -135 30 -14 2 -26 4 -27 6 -2 1 -6 2 -10 4 -5 1 -15 4
-23 7 -16 7 -189 59 -205 63 -5 1 -23 8 -40 14 -16 7 -37 14 -45 16 -8 2 -16
4 -17 5 -2 2 -6 3 -10 4 -5 1 -19 8 -33 16 -14 7 -27 13 -30 13 -3 0 -18 6
-35 13 -16 7 -33 10 -37 8 -5 -3 -8 -1 -8 5 0 5 -14 13 -32 16 -30 7 -36 3
-105 -71 -41 -44 -80 -86 -87 -94 -28 -31 -90 -137 -124 -209 -34 -74 -85
-241 -77 -250 3 -2 1 -9 -4 -15 -14 -17 -36 -242 -34 -343 2 -89 14 -140 64
-258 7 -16 13 -33 14 -37 2 -5 3 -9 4 -10 2 -2 4 -13 7 -26 2 -12 11 -39 21
-60 9 -20 17 -39 17 -42 1 -3 5 -11 9 -17 5 -7 6 -13 3 -13 -5 0 48 -157 71
-210 3 -8 7 -19 9 -25 4 -19 112 -320 125 -350 7 -16 13 -32 13 -35 9 -39 31
-102 37 -106 5 -3 9 -11 9 -19 0 -8 5 -26 12 -42 6 -15 12 -34 14 -41 1 -8 6
-21 10 -30 4 -9 8 -21 10 -27 4 -17 133 -380 145 -411 14 -33 13 -29 23 -71 4
-18 11 -33 15 -33 4 0 7 -8 8 -17 1 -16 99 -299 126 -363 5 -14 11 -32 13 -40
3 -16 89 -258 107 -300 6 -14 11 -27 12 -30 8 -30 18 -50 26 -50 5 0 9 -6 9
-14 0 -25 160 -143 174 -129 3 4 6 1 6 -6 0 -7 4 -9 10 -6 5 3 10 1 10 -5 0
-6 5 -8 10 -5 5 3 10 1 10 -4 0 -6 3 -10 8 -9 4 1 17 -3 30 -10 12 -7 22 -10
22 -6 0 3 7 1 15 -6 8 -7 15 -9 15 -4 0 5 4 4 8 -3 7 -12 220 -77 285 -88 422
-70 510 -77 892 -71 303 4 495 22 665 61 36 8 79 17 96 20 57 9 238 66 294 93
30 15 58 25 63 24 4 -1 7 3 7 9 0 5 5 7 10 4 6 -3 10 -1 10 4 0 6 3 10 8 9 9
-3 72 30 72 38 0 2 -10 0 -22 -6 -22 -11 -22 -10 -4 4 10 9 23 13 27 10 13 -7
86 55 109 91 17 27 145 374 154 415 2 8 9 29 15 45 35 84 119 334 114 339 -4
3 -2 6 4 6 10 0 37 79 31 91 -2 3 2 12 8 20 9 11 32 68 39 99 1 3 6 16 12 30
15 37 114 319 117 333 2 7 8 23 13 37 18 44 114 313 117 329 2 9 10 33 20 53
9 21 18 45 19 55 2 10 9 30 15 44 23 58 194 545 196 559 0 8 4 17 7 20 3 3 14
29 24 58 l17 54 -28 29 c-15 16 -34 29 -41 29 -7 0 -13 4 -13 8 0 5 -23 19
-51 33 -61 28 -184 34 -212 10 -10 -7 -17 -11 -17 -7 0 18 -72 -34 -132 -94
-36 -38 -80 -76 -97 -86 -17 -10 -33 -29 -36 -43 -11 -53 -16 -70 -70 -256
-30 -104 -56 -199 -58 -210 -2 -11 -7 -27 -10 -35 -3 -8 -25 -82 -47 -165 -23
-82 -59 -211 -80 -285 -22 -74 -41 -146 -44 -160 -3 -14 -21 -79 -41 -144 -19
-66 -37 -131 -39 -145 -2 -14 -5 -26 -6 -26 -1 0 -3 -7 -5 -15 -3 -8 -27 -94
-55 -190 -28 -96 -52 -184 -54 -195 -2 -11 -6 -27 -9 -35 -11 -26 -80 -274
-82 -290 0 -9 -4 -20 -7 -25 -5 -9 -19 -61 -23 -90 -1 -5 -3 -12 -4 -15 -2 -3
-4 -12 -6 -20 -5 -26 -24 -70 -30 -70 -5 0 0 55 10 100 6 28 111 659 121 730
3 25 8 59 11 75 2 17 6 39 7 50 2 11 6 31 9 45 4 14 9 48 13 75 3 28 7 59 9
70 22 117 42 243 43 255 0 8 7 49 15 90 8 41 15 82 15 90 0 8 10 67 21 130 11
63 23 131 25 150 3 19 12 73 20 120 8 47 14 92 15 100 0 8 5 35 10 60 5 25 12
64 14 85 3 22 8 51 11 65 19 77 15 93 -29 122 -23 15 -60 47 -82 70 -48 52
-101 94 -114 91 -5 -2 -9 1 -9 7 0 12 -92 37 -141 39 -20 1 -47 -3 -60 -8 -13
-5 -27 -9 -32 -10 -28 -3 -112 -62 -162 -115 -33 -34 -72 -71 -87 -82 -28 -19
-37 -59 -63 -280 -3 -22 -15 -113 -29 -204 -13 -91 -24 -172 -25 -180 0 -8
-14 -107 -31 -220 -16 -113 -32 -223 -35 -245 -3 -22 -14 -101 -25 -176 -11
-74 -22 -155 -24 -180 -3 -24 -14 -102 -25 -173 -11 -71 -19 -132 -19 -135 1
-3 -1 -19 -5 -36 -4 -16 -9 -50 -12 -75 -2 -25 -16 -124 -30 -220 -28 -196
-36 -259 -40 -310 -1 -19 -7 -46 -12 -60 -9 -23 -11 -21 -17 23 -4 26 -5 51
-1 56 5 9 37 881 34 942 -1 13 6 242 15 509 8 267 18 587 22 711 l7 225 -29
22 c-16 13 -60 53 -98 90 -38 36 -78 72 -90 79 -88 52 -164 64 -249 39 -31 -9
-57 -21 -57 -27 0 -6 -4 -7 -10 -4 -5 3 -10 1 -10 -4 0 -6 -5 -11 -10 -11 -6
0 -27 -17 -48 -38 -20 -20 -66 -63 -101 -95 l-63 -57 6 -173 c3 -94 11 -320
16 -502 6 -181 15 -476 21 -655 6 -179 11 -332 11 -340 -1 -8 4 -161 10 -340
14 -463 14 -501 -7 -425 -7 27 -12 52 -10 55 2 3 -8 82 -21 175 -14 94 -27
190 -30 215 -2 25 -7 56 -10 70 -3 14 -8 43 -10 65 -2 23 -20 151 -39 285 -20
135 -38 265 -41 290 -2 25 -9 70 -15 100 -6 30 -11 62 -11 70 0 8 -18 139 -40
290 -21 151 -42 300 -44 330 -3 30 -10 62 -14 71 -5 9 -7 18 -5 21 5 4 -38
331 -50 386 -3 12 -20 35 -37 50 -18 15 -60 55 -95 90 -83 84 -154 117 -248
117 -105 0 -188 -45 -272 -147 -16 -20 -92 -77 -109 -83 -1 0 9 -63 22 -140
13 -77 26 -162 29 -189 4 -27 11 -58 16 -68 5 -10 8 -22 5 -26 -2 -4 0 -27 5
-52 5 -25 11 -65 14 -90 3 -25 15 -97 26 -160 11 -63 22 -131 25 -150 2 -19
12 -73 20 -120 9 -47 16 -92 16 -100 0 -8 7 -51 15 -95 8 -44 16 -95 19 -114
2 -19 13 -86 24 -150 11 -64 22 -132 25 -151 2 -19 14 -89 25 -155 12 -66 23
-136 26 -155 2 -19 9 -60 14 -90 5 -30 12 -71 14 -91 3 -20 14 -91 26 -159 22
-127 21 -159 -1 -93 -13 39 -14 42 -22 78 -15 64 -21 81 -30 93 -5 6 -7 12 -4
12 5 0 -26 128 -40 160 -3 8 -7 22 -9 30 -4 23 -40 153 -106 380 -32 113 -61
216 -64 230 -7 32 -74 270 -81 290 -4 8 -7 18 -8 23 -2 4 -3 8 -5 10 -1 1 -3
11 -4 22 -2 17 -58 221 -71 263 -3 7 -5 14 -5 17 -1 3 -8 26 -16 52 -8 27 -17
59 -20 73 -6 31 -63 229 -71 250 -8 21 -11 31 -18 65 -7 34 -43 162 -52 185
-3 8 -6 18 -5 22 1 4 -3 20 -10 35 -14 34 -15 39 -17 58 0 8 -8 15 -16 15 -8
0 -15 5 -15 10 0 6 -4 10 -9 10 -5 0 -43 33 -84 74 -67 67 -137 118 -137 100
0 -4 -7 0 -17 7 -27 23 -159 17 -209 -9 -23 -11 -44 -18 -48 -15 -12 12 -6
114 9 143 12 22 25 31 65 39 64 14 122 14 180 0 25 -6 50 -12 55 -13 6 -1 37
-17 70 -36 33 -19 63 -36 66 -38 3 -1 40 -36 83 -77 42 -41 81 -76 86 -76 6
-1 14 -2 19 -3 5 0 13 -4 17 -9 12 -11 62 -8 97 7 18 7 68 46 110 87 102 97
104 99 117 99 5 0 10 5 10 12 0 6 3 9 6 6 3 -4 24 2 47 12 23 9 51 21 62 26
26 10 197 14 210 4 6 -4 25 -11 43 -15 49 -10 174 -98 222 -155 23 -28 48 -50
55 -50 7 0 15 -5 17 -11 2 -5 10 -11 18 -12 8 -2 20 -5 25 -9 15 -9 84 -7 91
3 3 5 9 7 14 4 5 -3 34 18 64 47 93 91 135 128 145 128 5 0 11 4 13 8 5 14
105 52 172 66 53 11 77 11 123 2 32 -7 61 -13 66 -14 4 -1 28 -10 53 -22 26
-11 50 -20 55 -20 5 0 9 -4 9 -10 0 -5 7 -10 15 -10 8 0 15 -5 15 -10 0 -6 8
-14 17 -17 9 -4 44 -34 77 -68 34 -34 76 -69 95 -78 35 -17 92 -23 105 -10 3
4 13 8 21 9 23 3 70 41 99 78 35 46 143 123 209 149 74 29 209 32 277 6 27
-10 50 -16 50 -11 0 4 4 2 8 -3 4 -6 27 -23 52 -37 25 -14 77 -57 115 -95 39
-39 81 -76 94 -83 30 -15 121 -23 121 -10 0 6 3 9 8 9 22 -4 38 7 106 74 42
39 83 78 93 84 24 17 116 66 128 69 118 27 143 29 200 18 79 -15 165 -44 165
-56 0 -5 4 -7 9 -4 29 18 -27 355 -63 378 -6 4 -7 8 -2 8 5 0 3 7 -4 15 -7 8
-9 15 -5 15 4 0 0 11 -9 25 -9 14 -14 25 -11 25 6 0 -25 63 -35 70 -3 3 -16
26 -29 51 -12 26 -33 59 -46 73 -14 15 -25 29 -25 32 0 10 -168 174 -178 174
-5 0 -12 7 -16 15 -3 8 -12 15 -20 15 -8 0 -16 4 -18 9 -3 9 -43 34 -119 75
l-46 25 -6 69 c-9 92 -48 226 -93 315 -20 40 -39 74 -43 77 -3 3 -13 18 -21
34 -8 16 -27 42 -42 57 -16 15 -28 31 -28 36 0 20 -177 173 -230 200 -19 10
-37 21 -40 25 -8 11 -133 65 -193 84 l-55 17 -7 71 c-7 72 -33 203 -43 221 -4
6 -7 16 -8 23 -4 25 -87 192 -96 192 -4 0 -8 5 -8 11 0 45 -225 290 -330 359
-12 8 -28 20 -35 27 -37 36 -330 201 -365 205 -3 1 -21 8 -40 16 -19 8 -39 15
-45 16 -5 1 -14 4 -20 7 -30 18 -265 86 -324 94 -14 2 -33 6 -41 8 -8 3 -27 8
-42 11 -25 6 -27 4 -26 -21z m142 -223 c-2 -36 -6 -87 -10 -115 -4 -27 -8 -59
-9 -70 -5 -38 -66 -210 -105 -292 -21 -46 -36 -83 -32 -83 4 0 2 -4 -4 -8 -13
-9 -89 -193 -99 -242 -15 -67 -22 -117 -24 -163 -1 -16 -4 -16 -36 -3 -20 9
-38 15 -40 15 -3 1 -21 8 -41 16 l-37 15 7 75 c9 94 37 189 84 280 20 39 39
72 42 75 13 11 70 101 70 111 0 5 5 9 10 9 6 0 10 6 10 14 0 8 4 16 9 18 15 5
101 150 95 159 -3 5 -1 9 5 9 8 0 22 27 26 50 0 3 6 14 12 25 15 28 34 100 39
152 9 103 33 62 28 -47z m-738 -1225 l36 -15 -30 -37 c-101 -130 -223 -382
-268 -553 -17 -65 -40 -140 -46 -145 -3 -3 -38 10 -77 30 -61 30 -71 38 -66
58 2 12 12 53 21 90 9 37 17 73 18 80 2 7 9 26 15 42 7 17 14 35 15 40 13 61
142 250 226 330 34 33 70 68 79 77 20 21 33 21 77 3z m-728 -1000 c22 -6 30
-30 13 -37 -12 -4 -73 -128 -64 -128 5 0 3 -4 -2 -8 -18 -13 -91 -202 -78
-202 3 0 1 -6 -4 -12 -6 -7 -18 -44 -27 -83 l-17 -70 -89 0 -89 -1 5 26 c41
185 119 338 239 468 37 40 63 61 74 58 9 -2 26 -7 39 -11z m4132 -910 c11 -13
10 -14 -4 -9 -9 3 -16 10 -16 15 0 13 6 11 20 -6z m-10 -49 c0 -12 -5 -7 -19
24 -11 24 -11 24 3 6 9 -11 16 -24 16 -30z"/>
</g>
</svg>
