<?xml version="1.0" standalone="no"?>
<!DOCTYPE svg PUBLIC "-//W3C//DTD SVG 20010904//EN"
 "http://www.w3.org/TR/2001/REC-SVG-20010904/DTD/svg10.dtd">
<svg version="1.0" xmlns="http://www.w3.org/2000/svg"
 width="469.000000pt" height="636.000000pt" viewBox="0 0 469.000000 636.000000"
 preserveAspectRatio="xMidYMid meet">
<metadata>
Created by potrace 1.16, written by Peter Selinger 2001-2019
</metadata>
<g transform="translate(0.000000,636.000000) scale(0.100000,-0.100000)"
fill="#000000" stroke="none">
<path d="M1853 6267 c-20 -170 -76 -291 -229 -497 -170 -227 -214 -328 -222
-502 -7 -170 -8 -168 106 -226 215 -111 572 -200 810 -203 31 0 66 -4 77 -9
29 -13 -346 -12 -463 1 -208 22 -421 77 -632 163 l-85 34 -40 -20 c-187 -94
-363 -283 -446 -479 -37 -86 -64 -191 -74 -280 l-7 -65 44 -29 c333 -221 858
-366 1458 -402 l125 -7 -70 -9 c-102 -13 -627 -1 -774 18 -303 38 -631 125
-931 249 l-85 35 -73 -72 c-222 -220 -343 -551 -335 -924 l2 -92 446 -1262
c245 -694 455 -1278 465 -1298 75 -146 407 -282 840 -345 388 -57 898 -51
1273 14 373 65 665 192 740 322 14 24 118 306 232 628 114 322 315 891 447
1265 174 493 238 683 231 695 -20 32 -110 91 -162 106 -119 35 -228 -2 -340
-115 -36 -37 -76 -74 -88 -82 -18 -13 -74 -202 -348 -1180 -179 -640 -330
-1175 -335 -1189 -9 -21 -10 -19 -6 15 2 22 45 292 95 600 233 1422 281 1717
281 1725 0 5 -9 12 -21 15 -11 4 -56 42 -100 86 -108 107 -160 134 -264 134
-103 0 -153 -24 -255 -121 -41 -40 -85 -81 -98 -91 -24 -19 -58 -250 -312
-2078 -58 -416 -60 -429 -66 -423 -2 3 12 521 31 1152 42 1390 42 1332 13
1347 -12 6 -61 49 -109 94 -97 92 -162 125 -249 125 -86 0 -152 -33 -249 -124
-47 -44 -97 -88 -110 -97 l-24 -15 12 -375 c32 -1037 61 -2011 60 -2064 -1
-70 -17 31 -169 1115 -56 399 -121 858 -144 1021 l-42 297 -88 83 c-108 102
-155 134 -219 150 -117 28 -215 -10 -336 -130 -44 -44 -89 -82 -101 -86 -17
-5 -20 -12 -16 -33 3 -15 53 -319 111 -677 58 -357 128 -785 155 -950 27 -165
63 -388 80 -495 17 -107 33 -204 36 -215 l4 -20 -10 20 c-6 11 -158 548 -339
1193 -287 1025 -332 1176 -352 1190 -13 9 -55 47 -93 84 -97 97 -149 123 -251
123 -62 0 -90 -5 -122 -21 -23 -12 -45 -19 -48 -16 -10 10 -5 111 6 136 22 48
137 67 252 42 94 -21 171 -67 262 -156 79 -77 118 -100 170 -100 52 0 90 23
181 110 220 210 459 211 677 2 93 -89 130 -112 182 -112 57 0 95 22 180 106
220 216 470 216 690 0 86 -85 123 -106 182 -106 50 0 93 28 174 109 119 121
266 176 405 153 101 -17 185 -63 278 -152 91 -87 129 -110 180 -110 56 0 84
16 165 95 97 94 173 140 268 161 107 24 171 13 321 -53 31 -14 1 211 -48 359
-90 268 -265 480 -504 609 -76 41 -76 41 -76 82 0 23 -7 71 -14 107 -43 198
-147 384 -291 519 -109 101 -204 159 -355 217 l-85 32 -12 99 c-31 247 -134
445 -338 648 -164 164 -390 304 -650 400 -89 33 -302 92 -395 109 l-36 6 -11
-93z m144 -184 c-8 -180 -33 -264 -147 -513 -76 -165 -118 -289 -127 -369 -3
-34 -9 -64 -14 -66 -8 -6 -119 32 -133 46 -16 14 13 188 45 270 18 48 73 142
141 246 151 229 191 315 223 486 12 63 17 18 12 -100z m-740 -1195 c18 -7 33
-15 33 -18 0 -4 -25 -45 -57 -91 -80 -120 -174 -322 -223 -479 -23 -74 -45
-143 -48 -152 -6 -15 -15 -13 -79 17 -84 39 -81 26 -36 184 56 195 129 321
269 459 52 50 97 92 101 92 4 0 22 -5 40 -12z m-721 -1004 l23 -6 -46 -91
c-59 -119 -105 -239 -134 -352 l-22 -90 -87 0 -87 0 13 55 c41 175 124 328
248 458 23 24 47 40 54 37 8 -3 25 -8 38 -11z"/>
</g>
</svg>
